<?xml version="1.0" encoding="UTF-8"?>
<svg width="41px" height="29px" viewBox="0 0 41 29" version="1.1" xmlns="http://www.w3.org/2000/svg" xmlns:xlink="http://www.w3.org/1999/xlink">
    <title>carousel</title>
    <g id="Passage" stroke="none" stroke-width="1" fill="none" fill-rule="evenodd" opacity="0.284312657">
        <g id="Passage-GUI" transform="translate(-530.000000, -500.000000)" fill="#000000" fill-rule="nonzero">
            <g id="carousel" transform="translate(530.000000, 500.000000)">
                <path d="M34.9045486,4.59418257 C34.5397251,2.38151543 32.5954278,0 29.1884696,0 L29.1406222,0 C27.0769615,0.0141726525 24.8084446,0.0205962288 22.0015681,0.0205962288 C20.5906314,0.0205962288 19.1794907,0.0189648444 17.7684519,0.017537383 C15.8044648,0.0153961909 13.8404776,0.0132549988 11.8767965,0.0152942293 C11.4750417,0.015804037 11.0018729,0.028345305 10.5399263,0.118887143 C7.79742444,0.655918515 6.01758338,2.87133861 6.0059531,5.76276365 C5.9977915,7.78700588 5.9998902,9.84458953 6.00146422,11.8343688 C6.0023824,12.7245949 6.00319856,13.614821 6.00319856,14.5050471 L6.00279048,16.5415247 C6.00217836,18.6802697 6.00146422,20.8918153 6.0064632,23.0672665 C6.00758542,23.5390425 6.01482884,23.9649358 6.09420041,24.3986801 C6.60399439,27.1861044 8.8399669,28.9898038 11.7901815,28.9938823 C14.7362133,28.9978588 17.6816329,29 20.6276647,29 C23.4823885,29 26.3379285,28.9979608 29.1925504,28.9940862 C32.6079762,28.989396 34.9951424,26.5965628 34.9975909,23.1752437 C35.0014676,17.7195882 35.0006515,12.0454291 34.9952444,5.82812099 C34.9944282,5.36439996 34.9648424,4.9606323 34.9045486,4.59418257 Z M32.1571498,23.1569926 C32.1567417,25.061634 31.0628832,26.1541518 29.1560272,26.1546616 C23.3845513,26.156293 17.6132795,26.156293 11.8418036,26.1546616 C9.93698804,26.1541518 8.84445578,25.0603085 8.84414972,23.1537299 C8.84312952,17.3855622 8.84312952,11.6175986 8.84414972,5.84932899 C8.84445578,3.94611509 9.93821228,2.85400515 11.8448642,2.85267965 C13.016666,2.85166004 14.1881618,2.85166004 15.3598616,2.85166004 L20.5466608,2.85216985 L25.6991813,2.85166004 C26.8522114,2.85166004 28.0057516,2.85166004 29.1587818,2.85267965 C31.0641074,2.85420908 32.1569458,3.94764451 32.1573538,5.85269372 C32.158272,11.6207594 32.158272,17.3890289 32.1571498,23.1569926 Z" id="Shape"></path>
                <path d="M40.9856103,7.89753704 C40.9780398,6.00996524 39.8479253,4.41874707 38.2984414,4.11379897 C37.7952684,4.01491087 37.2924476,4.00124257 36.824134,4.00124257 C36.7013338,4.00124257 36.5785335,4.00227805 36.4557332,4.00331353 C36.2025622,4.00538448 35.9492152,4.00766253 35.6971886,4.00031064 L35.6724525,4 C35.5806384,4 35.4979793,4.01418604 35.4315175,4.02557629 C35.4095983,4.02930401 35.3885594,4.03303173 35.3688409,4.03551688 L35.0128522,4.0802495 L35.0128522,6.86816893 L36.6669145,6.8674441 C36.9175326,6.8674441 37.1662142,6.86775474 37.4148957,6.86858312 C38.1797785,6.87117182 38.5526687,7.30959296 38.5548694,8.20880156 C38.5568941,9.0554079 38.5564539,9.90222135 38.5560138,10.7489312 L38.5555737,11.8504721 L38.5556617,14.4903183 C38.5556617,16.5398388 38.5557497,18.5895663 38.5554856,20.6389833 C38.5553096,21.7231281 38.2175428,22.1262395 37.308997,22.1268608 L36.4715784,22.1265501 C36.2081961,22.1265501 35.9445497,22.1269643 35.6811673,22.1287246 C35.5881208,22.1293459 35.5044054,22.1429107 35.4304611,22.1548187 C35.4050208,22.158857 35.3799326,22.1629989 35.3552845,22.1662089 L35,22.2116664 L35,24.994512 L35.3983306,24.994512 C35.637593,24.994512 35.8749188,24.9959616 36.1109242,24.9973078 C36.3456091,24.9986539 36.5788856,25 36.8114579,25 C37.1373407,25 37.4072372,24.9973078 37.6604962,24.9914055 C39.5133276,24.9484332 40.9732863,23.2427948 40.9842019,21.1081581 C41.0048006,17.0959937 41.0052408,12.7747393 40.9856103,7.89753704 Z" id="Path"></path>
                <path d="M4.88526125,4.0026973 C4.65012998,4.00124491 4.41649525,4 4.18382885,4 C3.85793745,4 3.58838599,4.00259355 3.33512031,4.00840311 C1.5145476,4.04958874 0.0250601415,5.7972286 0.0148485254,7.90402371 C-0.00460636403,11.9348203 -0.00495848873,16.2642905 0.0138801825,21.1396517 C0.0210987387,23.0181104 1.16515187,24.6394961 2.6748865,24.9109893 C3.01186984,24.9715747 3.37367796,25 3.8137458,25 C4.11357998,25 4.41799178,24.9868247 4.71245605,24.9741682 C5.00419136,24.9617192 5.30587419,24.9486476 5.60016241,24.9486476 L5.99850347,24.9486476 L5.99850347,22.6933976 L5.99612663,22.3973175 L5.77094289,22.2692997 C5.76610117,22.2666024 5.76213977,22.2635939 5.75853049,22.2612079 C5.71830024,22.2343386 5.63467063,22.1783179 5.5162687,22.1771767 C4.88358865,22.1720934 4.25082058,22.1684624 3.61822856,22.1661801 C2.80684523,22.1632753 2.44494908,21.7331604 2.44468498,20.7718859 C2.44354058,16.6049796 2.44354058,12.4379696 2.44468498,8.2711671 C2.44494908,7.30978881 2.80684523,6.88040015 3.61831659,6.87894776 C3.86374751,6.87842905 4.10909039,6.87832531 4.3556657,6.87832531 L6,6.87874027 L6,4.00580956 L5.60165894,4.00580956 C5.36089368,4.00539459 5.1223292,4.00414969 4.88526125,4.0026973 Z" id="Path"></path>
            </g>
        </g>
    </g>
</svg>