<?xml version="1.0" encoding="utf-8"?>
<!-- Generator: Adobe Illustrator 17.0.0, SVG Export Plug-In . SVG Version: 6.00 Build 0)  -->
<!DOCTYPE svg PUBLIC "-//W3C//DTD SVG 1.1//EN" "http://www.w3.org/Graphics/SVG/1.1/DTD/svg11.dtd">
<svg version="1.1" id="Ebene_1" xmlns="http://www.w3.org/2000/svg" xmlns:xlink="http://www.w3.org/1999/xlink" x="0px" y="0px"
	 width="528px" height="528px" viewBox="0 0 528 528" enable-background="new 0 0 528 528" xml:space="preserve">
<linearGradient id="SVGID_1_" gradientUnits="userSpaceOnUse" x1="37" y1="264" x2="490" y2="264">
	<stop  offset="0" style="stop-color:#E5395D"/>
	<stop  offset="1" style="stop-color:#4355EC"/>
</linearGradient>
<path fill="url(#SVGID_1_)" d="M451.71,38.064L75.365,85.822C53.97,85.822,37,103.727,37,125.122v259.38
	C37,405.897,54.046,418,75.441,418h15.72h47.16H155v71.936l64.311-71.274l39.052-45.675c2.83-3.285,7.669-3.663,10.971-0.833
	c3.285,2.829,3.603,4.896,0.773,8.181L235.156,418h217.565C474.116,418,490,405.897,490,384.502V77.364
	C490,55.969,473.105,38.064,451.71,38.064z M126.146,172.297l267.32-31.187c3.666-0.431,6.985,2.197,7.412,5.863
	c0.429,3.666-2.197,6.985-5.863,7.412l-267.32,31.187c-0.263,0.03-0.524,0.046-0.783,0.046c-3.344,0-6.233-2.506-6.629-5.909
	C119.855,176.043,122.481,172.724,126.146,172.297z M126.477,239.097l267.32-17.821c3.598-0.261,6.866,2.539,7.112,6.224
	c0.246,3.683-2.541,6.866-6.224,7.112l-267.32,17.821c-0.15,0.011-0.3,0.015-0.45,0.015c-3.489,0-6.426-2.706-6.661-6.239
	C120.007,242.525,122.794,239.342,126.477,239.097z M394.462,309.226L127.143,317c-0.074,0-0.15,0-0.226,0
	c-3.587,0-6.555-1.707-6.674-5.322c-0.124-3.69,2.767-6.209,6.457-6.331l267.32-8.626c3.531-0.231,6.779,2.336,6.901,6.03
	C401.043,306.44,398.152,309.104,394.462,309.226z"/>
</svg>
