<svg width="28" height="28" viewBox="0 0 28 28" xmlns="http://www.w3.org/2000/svg">
    <g fill="#C3C6D1" fill-rule="nonzero">
        <circle cx="14" cy="14" r="4.667"/>
        <path d="M8.022 12.833c.622-2.863 3.163-5.014 6.194-5.014h12.617a14.225 14.225 0 0 0-2.637-3.66A13.98 13.98 0 0 0 14.216 0a13.98 13.98 0 0 0-9.98 4.158c-.257.258-.502.524-.736.798l4.522 7.877z"/>
        <path d="M16.333 20.394a6.724 6.724 0 0 1-1.958.29c-2.399 0-4.496-1.253-5.61-3.109a.823.823 0 0 1-.023-.036L2.36 7A13.156 13.156 0 0 0 0 14.528c0 3.66 1.495 7.102 4.21 9.69A14.51 14.51 0 0 0 11.727 28l4.606-7.606z"/>
        <path d="M17.995 9.333c1.294 1.153 2.107 2.812 2.107 4.653a6.148 6.148 0 0 1-.883 3.178c-.006.01-.01.021-.017.032l-6.369 10.78c.275.015.55.024.827.024 3.83 0 7.432-1.458 10.14-4.104 2.708-2.647 4.2-6.166 4.2-9.91 0-1.61-.277-3.177-.806-4.653h-9.2z"/>
    </g>
</svg>
