<?xml version="1.0" encoding="utf-8"?>
<!-- Generator: Adobe Illustrator 17.0.0, SVG Export Plug-In . SVG Version: 6.00 Build 0)  -->
<!DOCTYPE svg PUBLIC "-//W3C//DTD SVG 1.1//EN" "http://www.w3.org/Graphics/SVG/1.1/DTD/svg11.dtd">
<svg version="1.1" id="Ebene_1" xmlns="http://www.w3.org/2000/svg" xmlns:xlink="http://www.w3.org/1999/xlink" x="0px" y="0px"
	 width="512px" height="512px" viewBox="0 0 512 512" enable-background="new 0 0 512 512" xml:space="preserve">
<g>
	<path d="M256.059,37.021C135.124,37.005,37.131,134.89,36.988,255.85c-0.143,120.991,98.172,219.274,219.2,219.129
		c121.039-0.145,218.89-98.094,218.824-219.044C474.945,134.918,377.047,37.037,256.059,37.021z M256.181,440.915
		c-102.14,0.28-184.85-82.199-185.158-184.642C70.716,153.942,153.547,71.041,256.055,71.086
		c102.497,0.044,184.764,82.285,184.907,184.849C441.105,358.255,358.815,440.634,256.181,440.915z"/>
	<path d="M330.936,204.728c6.62-9.264,2.341-22.272-8.491-25.778c-7.321-2.369-13.332,0.012-18.587,5.287
		c-14.384,14.44-28.856,28.792-43.231,43.242c-1.078,1.083-1.656,2.663-2.575,4.192c-2.295-2.176-3.441-3.214-4.534-4.305
		c-14.125-14.095-28.238-28.202-42.37-42.29c-1.31-1.306-2.636-2.628-4.119-3.719c-9.144-6.73-22.343-2.687-25.957,8.028
		c-2.447,7.253-0.272,13.37,5.036,18.666c15.536,15.5,31.013,31.059,46.738,46.82c-13.082,13.15-25.949,26.066-38.79,39.007
		c-3.512,3.538-7.267,6.897-10.355,10.781c-7.899,9.934-2.169,24.558,10.305,26.836c6.678,1.219,11.904-1.396,16.497-6.003
		c14.391-14.434,28.852-28.798,43.218-43.257c1.077-1.084,1.614-2.704,2.788-4.746c2.222,2.664,3.141,3.955,4.246,5.062
		c14.398,14.426,28.837,28.813,43.235,43.239c5.407,5.417,11.67,7.593,19.059,4.916c11.866-4.298,14.807-18.904,5.541-28.315
		c-14.599-14.828-29.418-29.44-44.136-44.151c-1.061-1.06-2.06-2.182-3.071-3.257c15.329-15.393,30.315-30.431,45.28-45.49
		C328.166,207.98,329.703,206.454,330.936,204.728z"/>
</g>
</svg>
