<?xml version="1.0" encoding="utf-8"?>
<!-- Generator: Adobe Illustrator 17.0.0, SVG Export Plug-In . SVG Version: 6.00 Build 0)  -->
<!DOCTYPE svg PUBLIC "-//W3C//DTD SVG 1.1//EN" "http://www.w3.org/Graphics/SVG/1.1/DTD/svg11.dtd">
<svg version="1.1" id="Ebene_1" xmlns="http://www.w3.org/2000/svg" xmlns:xlink="http://www.w3.org/1999/xlink" x="0px" y="0px"
	 width="512px" height="512px" viewBox="0 0 512 512" enable-background="new 0 0 512 512" xml:space="preserve">
<g>
	<path d="M292.465,97.557c-9.499-0.002-16.387,5.6-19.3,15.78c-19.226,67.209-38.451,134.417-57.654,201.633
		c-6.876,24.068-13.906,48.096-20.452,72.253c-3.735,13.787,8.429,26.338,22.44,23.668c9.483-1.807,13.827-8.426,16.307-17.158
		c16.641-58.578,33.425-117.115,50.144-175.67c9.093-31.847,18.24-63.678,27.176-95.569
		C314.74,109.598,305.535,97.559,292.465,97.557z"/>
	<path d="M462.337,240.651c-25.962-26.114-51.996-52.156-78.12-78.109c-8.114-8.061-20.205-7.867-27.924,0.024
		c-7.535,7.702-7.453,19.532,0.318,27.612c4.659,4.845,9.483,9.531,14.241,14.281c16.644,16.618,33.292,33.233,50.867,50.777
		c-1.81,1.386-3.277,2.272-4.456,3.448c-20.122,20.069-40.246,40.136-60.285,60.288c-8.272,8.319-8.348,20.453-0.406,28.261
		c7.853,7.721,19.724,7.638,27.938-0.534c25.996-25.864,51.932-51.787,77.787-77.79C470.579,260.58,470.6,248.962,462.337,240.651z"
		/>
	<path d="M95.145,264.891c-3.241-3.233-6.63-6.316-10.765-10.241c1.996-1.662,3.376-2.64,4.555-3.818
		c20.021-19.982,40.065-39.943,59.999-60.012c8.568-8.626,8.691-20.746,0.571-28.616c-8.043-7.795-19.798-7.437-28.28,1.023
		c-25.656,25.593-51.285,51.212-76.871,76.874c-8.881,8.908-8.912,20.372-0.05,29.262c25.69,25.775,51.42,51.51,77.201,77.193
		c8.382,8.35,20.381,8.449,28.282,0.481c7.702-7.768,7.64-19.738-0.496-27.957C131.327,300.934,113.223,282.925,95.145,264.891z"/>
</g>
</svg>
