<?xml version="1.0" encoding="UTF-8"?>
<svg width="18px" height="18px" viewBox="0 0 18 18" version="1.1" xmlns="http://www.w3.org/2000/svg" xmlns:xlink="http://www.w3.org/1999/xlink">
    <title>2F8418CD-7A59-4F97-A69D-B82C469B803B</title>
    <g id="Chat-GPT" stroke="none" stroke-width="1" fill="none" fill-rule="evenodd">
        <g id="Tags-Context-Menu-Level-2-Color" transform="translate(-568.000000, -162.000000)" fill="#000000" fill-rule="nonzero">
            <g id="color-01" transform="translate(568.000000, 162.000000)">
                <path d="M17.4723045,10.9609022 C16.880234,10.3963326 16.2804672,9.83976203 15.6736383,9.26971928 C15.7168141,9.23153399 15.7423981,9.20783133 15.769124,9.18543378 C16.7802235,8.33765307 17.141403,7.03177522 16.7097299,5.78408047 C15.1510466,1.27931132 10.2397924,-1.08590299 5.7086202,0.486135146 C1.858069,1.82203075 -0.535500878,5.79658436 0.102663198,9.83231021 C0.509894002,12.4076067 1.82829844,14.4130289 4.04235692,15.8040764 C5.87561443,16.955908 7.88703013,17.3188997 10.0217145,16.9765373 C11.2277605,16.7831269 12.3469475,16.3458275 13.3525496,15.651251 C13.9707539,15.2242663 14.2261294,14.6052184 14.1234971,13.8698885 C14.0226832,13.147694 13.6292382,12.6131 12.9317021,12.3521602 C12.6966247,12.2642119 12.4302966,12.2438773 12.1758513,12.2253951 C11.5789178,12.1820736 11.1539261,11.8060727 11.0545077,11.2068121 C10.968283,10.687248 11.256643,10.1821245 11.7466732,9.97650493 C11.8710837,9.92430012 11.9482165,9.93495159 12.04662,10.0397401 C13.0589036,11.117685 14.0763886,12.1908305 15.0958188,13.2620815 C15.5782795,13.7690574 16.1663326,13.9461328 16.8392572,13.7393344 C18.0547756,13.3657754 18.3982365,11.8438791 17.4723045,10.9609022 Z M10.0922082,10.3500219 C9.62260299,11.7620775 10.6565802,13.2321058 12.1534388,13.2715962 C12.5626149,13.282374 12.8716113,13.4243795 13.0275261,13.8160839 C13.1816649,14.2032835 13.0459213,14.5997874 12.6803439,14.8361825 C11.8251592,15.3891745 10.896563,15.7698907 9.8895654,15.9267156 C7.32904358,16.3254929 5.09299548,15.6476725 3.24485269,13.8292193 C1.92771689,12.5332351 1.21212398,10.9380837 1.08403446,9.09655932 C0.827432538,5.40774279 3.25935738,2.12258727 6.87918675,1.25043028 C10.6211008,0.348844938 14.5555931,2.54418314 15.7290352,6.18833088 C16.0151963,7.07699132 15.6742726,8.02888693 14.8783753,8.5222644 C14.3710495,8.04585349 13.8684599,7.57403155 13.3660394,7.1020412 C12.9270928,6.68970747 12.4899223,6.27543711 12.0479732,5.86630303 C11.970925,5.79498454 11.9452141,5.7274972 11.9627212,5.62270869 C12.1378347,4.57545512 11.611141,3.36636666 10.4990161,2.90709071 C9.68167894,2.56956983 8.83131505,2.36837084 7.96581216,2.21701902 C7.58547635,2.1505421 7.20188439,2.10225265 6.81922275,2.04966895 C6.41194966,1.99367509 6.13153975,2.26240351 6.17936717,2.66749593 C6.31972013,3.85612348 6.52659169,5.02925798 6.95471263,6.15599758 C7.29627059,7.05497268 7.92766863,7.61335355 8.87220729,7.78983946 C9.1712238,7.84570702 9.48817031,7.8055009 9.79682842,7.81244751 C9.85036468,7.81366843 9.92326872,7.8120265 9.95392732,7.84368619 C10.3518548,8.25454639 10.7437775,8.67121649 11.1441154,9.09369647 C10.6318419,9.38915881 10.2750603,9.80010322 10.0922082,10.3500219 Z M10.9259107,5.42222542 C10.8363876,6.11465475 10.2893959,6.67240411 9.61710558,6.76708846 C8.85719514,6.8741083 8.24178186,6.52909351 7.95490193,5.81582436 C7.64231106,5.03864643 7.48804543,4.22008356 7.34815763,3.39886836 C7.3375857,3.33689621 7.3296779,3.27446095 7.31335483,3.16369415 C7.84398122,3.27206121 8.34475248,3.35786233 8.83651644,3.47987 C9.23778468,3.57948013 9.63275204,3.70973953 10.0224334,3.84879796 C10.7367154,4.10371738 11.0009714,4.8415733 10.9259107,5.42222542 Z M16.9324593,12.263833 C16.8904676,12.5016596 16.7497764,12.6703569 16.5163481,12.7375495 C16.2713753,12.8080681 16.0576954,12.7410439 15.8793681,12.5523067 C14.9645154,11.5842444 14.0472101,10.6184556 13.1308773,9.65178264 C12.4035707,8.88449836 11.676391,8.11704568 10.9759794,7.37796884 C11.1654707,7.19015785 11.3425717,7.01464026 11.5303715,6.8285133 C11.6728811,6.96235126 11.8511239,7.12974343 12.0293666,7.2971777 C13.5881345,8.76148028 15.1463949,10.2262881 16.7063046,11.6893276 C16.8750326,11.847626 16.9736476,12.0304271 16.9324593,12.263833 Z" id="Shape"></path>
                <path d="M4.05125863,6.3000017 C2.79935127,6.29848625 1.79207062,7.31111017 1.80004705,8.56315007 C1.80797454,9.80819151 2.8165275,10.8073568 4.05786487,10.7999592 C5.30482977,10.792479 6.30335104,9.78881115 6.29998305,8.54626567 C6.29664693,7.30029436 5.29680441,6.30156949 4.05125863,6.3000017 Z M4.06716254,9.57298439 C3.48884721,9.58022756 3.0284166,9.13144493 3.02556484,8.55766876 C3.02274013,7.98893344 3.46697321,7.53325023 4.03090161,7.52649646 C4.61009778,7.51954694 5.06871779,7.96671454 5.07216239,8.54171422 C5.07551977,9.11059636 4.63182497,9.56588805 4.06716254,9.57298439 Z" id="Shape"></path>
                <path d="M7.67466417,10.8006166 C6.46709057,10.7716622 5.42906533,11.7661884 5.40065241,12.9792912 C5.37111471,14.2400808 6.34820622,15.2757399 7.58962102,15.2995588 C8.85700358,15.3238179 9.87331568,14.3447961 9.89952794,13.0744202 C9.92485994,11.8499215 8.92747349,10.8306471 7.67466417,10.8006166 Z M7.64277911,14.076779 C7.07095073,14.0746688 6.6179578,13.6132075 6.62299486,13.0380315 C6.62793411,12.4756699 7.0846437,12.0278543 7.65133721,12.0297071 C8.22649103,12.0315714 8.67787014,12.4911253 8.67014339,13.0668881 C8.66256335,13.6320865 8.20810332,14.0788261 7.64277911,14.076779 Z" id="Shape"></path>
            </g>
        </g>
    </g>
</svg>