<?xml version="1.0" encoding="utf-8"?>
<!-- Generator: Adobe Illustrator 17.0.0, SVG Export Plug-In . SVG Version: 6.00 Build 0)  -->
<!DOCTYPE svg PUBLIC "-//W3C//DTD SVG 1.1//EN" "http://www.w3.org/Graphics/SVG/1.1/DTD/svg11.dtd">
<svg version="1.1" id="Ebene_1" xmlns="http://www.w3.org/2000/svg" xmlns:xlink="http://www.w3.org/1999/xlink" x="0px" y="0px"
	 width="512px" height="512px" viewBox="0 0 512 512" enable-background="new 0 0 512 512" xml:space="preserve">
<path d="M256.253,87.857c46.832,0.001,93.664-0.064,140.496,0.03c21.526,0.043,38.119,17.419,37.164,38.742
	c-0.408,9.113-3.963,16.989-10.105,23.74c-38.907,42.764-77.744,85.593-116.785,128.235c-3.611,3.945-5.096,7.761-5.024,13.083
	c0.291,21.558,0.048,43.123,0.171,64.684c0.032,5.529-1.903,9.764-6.209,13.19c-21.165,16.84-42.285,33.735-63.391,50.649
	c-3.843,3.08-7.961,4.861-12.941,3.483c-6.133-1.696-9.82-6.71-9.83-13.548c-0.034-23.347-0.014-46.695-0.014-70.042
	c0-17.03-0.083-34.06,0.071-51.089c0.031-3.386-0.877-5.875-3.184-8.403c-39.435-43.212-78.768-86.518-118.139-129.788
	c-18.599-20.44-11.54-51.683,13.945-60.634c4.55-1.598,9.66-2.22,14.516-2.237C163.413,87.79,209.833,87.856,256.253,87.857z
	 M236.179,383.175c0.991-0.605,1.448-0.819,1.83-1.127c11.976-9.647,23.995-19.241,35.836-29.051
	c1.185-0.981,1.794-3.275,1.803-4.964c0.117-21.974,0.183-43.95,0.005-65.924c-0.045-5.582,1.663-9.976,5.416-14.098
	c40.775-44.781,81.434-89.668,122.168-134.487c3.519-3.873,5.413-8.013,3.071-13.073c-2.242-4.844-6.405-6.242-11.516-6.24
	c-92.569,0.051-185.138,0.052-277.707-0.002c-5.255-0.003-9.546,1.361-11.813,6.424c-2.295,5.126-0.204,9.2,3.288,13.041
	c40.833,44.914,81.601,89.888,122.457,134.781c3.529,3.878,5.244,8.05,5.223,13.345c-0.124,32.138-0.062,64.276-0.062,96.415
	C236.179,379.666,236.179,381.118,236.179,383.175z"/>
</svg>
