<svg width="20" height="23" viewBox="0 0 20 23" xmlns="http://www.w3.org/2000/svg">
    <g fill="#C3C6D1" fill-rule="nonzero">
        <path d="M14.128 5H.873C.39 5 0 5.364 0 5.811V22.19c0 .447.391.811.873.811h13.255c.48 0 .872-.364.872-.811V5.81c0-.447-.391-.811-.872-.811zm-2.824 11H4.696C4.31 16 4 15.553 4 15c0-.553.311-1 .696-1h6.608c.385 0 .696.447.696 1 0 .553-.311 1-.696 1zm0-3H4.696C4.31 13 4 12.553 4 12c0-.553.311-1 .696-1h6.608c.385 0 .696.447.696 1 0 .553-.311 1-.696 1zm0-3H4.696C4.31 10 4 9.553 4 9c0-.553.311-1 .696-1h6.608c.385 0 .696.447.696 1 0 .553-.311 1-.696 1z"/>
        <path d="M19.614 2.655V18.46c0 1.085-.862 2.155-2.381 2.155V4.934c0-1.257-1.01-2.279-2.25-2.279H3.9C3.9 1.467 4.912.5 6.155.5h11.204c1.244 0 2.255.967 2.255 2.155z"/>
    </g>
</svg>
