<svg viewBox="0 0 89 88" fill="none" xmlns="http://www.w3.org/2000/svg">
<path fill-rule="evenodd" clip-rule="evenodd" d="M44 0C41.791 0 40 1.79089 40 4V56.3433L25.4854 41.8285C23.9233 40.2664 21.3906 40.2664 19.8286 41.8285C18.2661 43.3905 18.2661 45.9232 19.8286 47.4852L40.7285 68.3854C41.5225 69.1791 42.5664 69.5695 43.6069 69.5565C44.6475 69.5695 45.6914 69.1791 46.4854 68.3854L67.3857 47.4852C68.9478 45.9232 68.9478 43.3905 67.3857 41.8284C65.8232 40.2664 63.291 40.2664 61.7285 41.8284L48 55.557V4C48 1.79089 46.209 0 44 0ZM3 66C1.34326 66 0 67.3431 0 69V85C0 86.6569 1.34326 88 3 88H86C87.6567 88 89 86.6569 89 85V69C89 67.3431 87.6567 66 86 66C84.3433 66 83 67.3431 83 69V82H6V69C6 67.3431 4.65674 66 3 66Z" fill="white"/>
</svg>
