<?xml version="1.0" encoding="utf-8"?>
<!-- Generator: Adobe Illustrator 17.0.0, SVG Export Plug-In . SVG Version: 6.00 Build 0)  -->
<!DOCTYPE svg PUBLIC "-//W3C//DTD SVG 1.1//EN" "http://www.w3.org/Graphics/SVG/1.1/DTD/svg11.dtd">
<svg version="1.1" id="Ebene_1" xmlns="http://www.w3.org/2000/svg" xmlns:xlink="http://www.w3.org/1999/xlink" x="0px" y="0px"
	 width="512px" height="512px" viewBox="0 0 512 512" enable-background="new 0 0 512 512" xml:space="preserve">
<g>
	<path d="M404.503,237.299c-0.377-6.637-5.409-11.862-11.865-12.328c-6.239-0.451-12.014,3.853-13.357,10.15
		c-0.379,1.776-0.311,3.665-0.312,5.503c-0.014,60.738-0.008,121.476-0.015,182.214c-0.002,14.842-8.666,23.502-23.522,23.503
		c-89.262,0.007-178.524,0.006-267.786,0.001c-15.181-0.001-23.743-8.552-23.744-23.714c-0.005-89.12-0.004-178.24-0.001-267.36
		c0.001-15.511,8.438-23.977,23.89-23.978c47.54-0.004,95.08-0.001,142.621-0.002c13.765,0,27.531-0.001,41.296-0.002
		c5.815,0,10.183-2.5,12.53-7.846c3.86-8.794-2.681-17.7-12.966-17.703c-61.164-0.024-122.327-0.017-183.491-0.01
		C58.348,105.73,38.343,125.7,38.34,155.106c-0.011,89.12-0.01,178.24,0,267.361c0.003,29.423,19.998,49.43,49.4,49.438
		c44.418,0.013,88.836,0.003,133.254,0.003c44.702,0,89.404,0.034,134.106-0.053c4.365-0.008,8.844-0.268,13.074-1.253
		c21.657-5.041,36.286-23.522,36.317-45.98c0.085-61.873,0.03-123.746,0.03-185.62C404.52,238.435,404.535,237.866,404.503,237.299z
		"/>
	<path d="M463.638,66.678c-7.213-7.232-14.441-14.447-21.668-21.665c-5.892-5.885-13.002-8.928-21.439-9.139
		c-8.556,0.128-15.8,3.394-21.919,9.517c-63.574,63.618-127.2,127.184-190.686,190.889c-2.354,2.362-4.259,5.827-4.953,9.08
		c-4.109,19.255-7.829,38.593-11.615,57.916c-1.989,10.152,5.452,17.568,15.71,15.574c18.354-3.568,36.654-7.42,55.035-10.835
		c5.732-1.065,10.146-3.606,14.199-7.724c16.818-17.086,33.849-33.962,50.802-50.914c45.54-45.54,91.086-91.076,136.618-136.624
		C478.084,98.386,478.041,81.118,463.638,66.678z M411.249,129.112c-50.27,50.281-100.541,100.56-150.84,150.811
		c-1.165,1.164-2.518,2.599-3.997,2.919c-11.756,2.545-23.564,4.85-36.365,7.433c1.81-9.243,3.881-17.486,4.935-25.857
		c1.068-8.478,5.088-14.617,11.088-20.568c48.363-47.971,96.447-96.222,144.588-144.416c1.091-1.092,1.838-2.526,2.459-3.397
		c10.587,10.557,20.473,20.414,30.569,30.48C413.156,127.081,412.233,128.127,411.249,129.112z M447.268,93.041
		c-4.733,4.859-9.538,9.649-14.426,14.58c-10.208-10.211-20.006-20.013-30.13-30.14c4.844-4.853,9.759-9.897,14.822-14.786
		c1.916-1.85,4.167-1.676,6.068,0.213c7.936,7.888,15.853,15.795,23.732,23.739C449.389,88.72,449.256,91,447.268,93.041z"/>
</g>
</svg>
