<?xml version="1.0" encoding="utf-8"?>
<!-- Generator: Adobe Illustrator 17.0.0, SVG Export Plug-In . SVG Version: 6.00 Build 0)  -->
<!DOCTYPE svg PUBLIC "-//W3C//DTD SVG 1.1//EN" "http://www.w3.org/Graphics/SVG/1.1/DTD/svg11.dtd">
<svg version="1.1" id="Ebene_1" xmlns="http://www.w3.org/2000/svg" xmlns:xlink="http://www.w3.org/1999/xlink" x="0px" y="0px"
	 width="512px" height="512px" viewBox="0 0 512 512" enable-background="new 0 0 512 512" xml:space="preserve">
<g>
	<path d="M367.724,90.317H131.512c-35.167,0-63.776,28.066-63.776,62.564v142.923c0,34.497,28.61,62.563,63.776,62.563
		l150.454,0.001l72.022,70.651c2.441,2.395,5.702,3.666,9.023,3.666c1.643,0,3.3-0.312,4.878-0.954
		c4.766-1.936,7.875-6.497,7.875-11.559v-62.299c31.387-3.889,55.737-30.241,55.737-62.068V152.88
		C431.5,118.383,402.89,90.317,367.724,90.317z M405.989,295.804c0,20.699-17.166,37.538-38.266,37.538h-4.715
		c-7.044,0-12.755,5.604-12.755,12.513v44.108l-53.983-52.956c-2.392-2.347-5.635-3.665-9.02-3.665H131.512
		c-21.1,0-38.266-16.839-38.266-37.538V152.881c0-20.699,17.166-37.538,38.266-37.538h236.212c21.1,0,38.266,16.839,38.266,37.538
		V295.804z"/>
	<path d="M344.508,175.908H156.125c-7.067,0-12.798,4.79-12.798,10.699c0,5.908,5.73,10.699,12.798,10.699h188.384
		c7.067,0,12.798-4.791,12.798-10.699C357.306,180.698,351.577,175.908,344.508,175.908z"/>
	<path d="M344.508,240.102H156.125c-7.067,0-12.798,4.79-12.798,10.699s5.73,10.699,12.798,10.699h188.384
		c7.067,0,12.798-4.791,12.798-10.699S351.577,240.102,344.508,240.102z"/>
</g>
</svg>
