<?xml version="1.0" encoding="utf-8"?>
<!-- Generator: Adobe Illustrator 17.0.0, SVG Export Plug-In . SVG Version: 6.00 Build 0)  -->
<!DOCTYPE svg PUBLIC "-//W3C//DTD SVG 1.1//EN" "http://www.w3.org/Graphics/SVG/1.1/DTD/svg11.dtd">
<svg version="1.1" id="Ebene_7" xmlns="http://www.w3.org/2000/svg" xmlns:xlink="http://www.w3.org/1999/xlink" x="0px" y="0px"
	 width="512px" height="512px" viewBox="0 0 512 512" enable-background="new 0 0 512 512" xml:space="preserve">
<g>
	<g id="PassageNew_1_">
		<g id="All-Elements_1_" transform="translate(-54.000000, -304.000000)">
			<g id="button_1_" transform="translate(54.000000, 304.000000)">
				<path id="Path_1_" d="M254,182.906c-39.619,0-71.775,32.155-71.775,71.775c0,39.62,32.155,71.774,71.775,71.774
					s71.775-32.155,71.775-71.775S293.62,182.906,254,182.906z"/>
				<path id="Shape_14_" d="M254,111.131c-79.31,0-143.549,64.239-143.549,143.549S174.689,398.23,254,398.23
					s143.55-64.238,143.55-143.549S333.311,111.131,254,111.131z M254,369.521c-63.449,0-114.84-51.391-114.84-114.84
					S190.551,139.841,254,139.841s114.84,51.391,114.84,114.839S317.449,369.521,254,369.521z"/>
			</g>
		</g>
	</g>
</g>
</svg>
