<?xml version="1.0" encoding="utf-8"?>
<!-- Generator: Adobe Illustrator 17.0.0, SVG Export Plug-In . SVG Version: 6.00 Build 0)  -->
<!DOCTYPE svg PUBLIC "-//W3C//DTD SVG 1.1//EN" "http://www.w3.org/Graphics/SVG/1.1/DTD/svg11.dtd">
<svg version="1.1" id="Ebene_3" xmlns="http://www.w3.org/2000/svg" xmlns:xlink="http://www.w3.org/1999/xlink" x="0px" y="0px"
	 width="512px" height="512px" viewBox="0 0 512 512" enable-background="new 0 0 512 512" xml:space="preserve">
<g>
	<path d="M428.471,114.813c-0.014-28.477-20.589-49.149-48.99-49.167c-85.919-0.049-171.837-0.036-257.755,0.038
		c-4.093,0.004-8.293,0.37-12.263,1.322c-22.04,5.281-36.64,23.965-36.684,46.979c-0.083,43.173-0.023,86.348-0.024,129.522
		c-0.001,42.746-0.02,85.493,0.007,128.239c0.019,29.02,20.49,49.601,49.419,49.612c85.633,0.033,171.266,0.033,256.899,0
		c28.777-0.011,49.377-20.525,49.39-49.21C428.509,286.37,428.51,200.591,428.471,114.813z M100.134,115.903
		c0.003-14.919,8.007-22.892,22.985-22.893c85.047-0.003,170.096-0.003,255.144,0c14.722,0.001,22.837,8.028,22.839,22.609
		c0.008,62.969,0.005,125.938,0.005,188.906c0,1.277,0,2.552,0,4.438c-1.266-0.812-2.193-1.3-2.999-1.94
		c-10.709-8.5-21.402-17.021-32.098-25.536c-14.76-11.751-31.565-12.207-46.839-1.204c-13.864,9.987-27.677,20.045-41.529,30.048
		c-6.09,4.398-9.649,4.098-14.961-1.207c-13.505-13.491-26.977-27.017-40.503-40.487c-15.99-15.924-35.899-16.665-53.145-2.083
		c-21.862,18.484-43.752,36.937-65.634,55.399c-0.836,0.706-1.714,1.361-3.259,2.582c-0.003-2.356-0.003-3.775-0.003-5.194
		C100.134,251.528,100.134,183.716,100.134,115.903z M401.097,372.606c-0.069,12.89-8.544,21.359-21.499,21.37
		c-43.02,0.033-86.039,0.013-129.059,0.013c-42.308,0.001-84.614,0.002-126.923-0.001c-15.627-0.001-22.973-7.796-23.691-23.241
		c-0.358-7.701,2.322-12.328,8.103-17.063c26.665-21.835,52.935-44.152,79.352-66.29c5.996-5.025,10.071-4.814,15.545,0.772
		c13.461,13.733,26.925,27.463,40.374,41.208c15.215,15.548,34.546,16.939,51.826,3.642c13.203-10.161,26.341-20.406,39.531-30.585
		c5.161-3.982,8.803-3.993,13.814,0.013c16.796,13.428,33.594,26.854,50.268,40.432c1.281,1.044,2.216,3.25,2.264,4.946
		C401.231,356.079,401.141,364.344,401.097,372.606z"/>
	<path d="M285.924,255.354c25.659,0.376,47.438-21.067,47.703-46.968c0.265-25.918-20.689-47.375-46.77-47.888
		c-25.938-0.511-47.728,20.764-48.094,46.957C238.401,233.43,259.608,254.969,285.924,255.354z M286.214,186.369
		c11.807,0.03,21.598,9.878,21.535,21.66c-0.064,11.771-10.027,21.565-21.772,21.404c-11.724-0.161-21.249-9.742-21.303-21.429
		C264.619,196.216,274.452,186.339,286.214,186.369z"/>
</g>
</svg>
