<?xml version="1.0" encoding="utf-8"?>
<!-- Generator: Adobe Illustrator 17.0.0, SVG Export Plug-In . SVG Version: 6.00 Build 0)  -->
<!DOCTYPE svg PUBLIC "-//W3C//DTD SVG 1.1//EN" "http://www.w3.org/Graphics/SVG/1.1/DTD/svg11.dtd">
<svg version="1.1" id="Ebene_10" xmlns="http://www.w3.org/2000/svg" xmlns:xlink="http://www.w3.org/1999/xlink" x="0px" y="0px"
	 width="512px" height="512px" viewBox="0 0 512 512" enable-background="new 0 0 512 512" xml:space="preserve">
<g>
	<g id="PassageNew_10_">
		<g id="All-Elements_10_" transform="translate(-56.000000, -362.000000)">
			<g id="jump_1_" transform="translate(56.000000, 362.000000)">
				<path id="Path_11_" d="M306.856,101.597c2.967,11.578-0.041,24.247-8.473,33.115c-8.293,8.722-21.091,12.612-33.112,9.964
					c-11.976-2.639-21.821-11.27-26.218-22.178c-4.535-11.25-3.186-24.316,4.053-34.255c7.045-9.673,19.119-15.233,31.43-14.152
					c12.147,1.067,22.983,8.387,28.738,18.589C304.86,95.49,306.061,98.496,306.856,101.597z"/>
				<path id="Path_10_" d="M300.391,238.777c5.208,3.48,12.288,3.083,17.081-0.953c1.056-0.89,2.023-1.903,3.017-2.861
					c4.931-4.749,9.861-9.498,14.792-14.246c5.593-5.387,11.187-10.774,16.781-16.161c1.592-1.533,3.183-3.066,4.775-4.599
					c2.344-2.258,4.092-4.899,4.621-8.193c0.967-6.024-2.382-12.103-8.001-14.431c-4.609-1.91-9.911-0.996-13.7,2.225
					c-4.296,3.653-8.592,7.306-12.889,10.959c-5.541,4.711-11.081,9.422-16.622,14.134c-0.574,0.488-1.148,0.976-1.722,1.464
					c-0.225,0.191-0.188,0.214-0.405,0.025c-1.244-1.082-2.488-2.164-3.731-3.246c-5.476-4.763-10.952-9.526-16.428-14.289
					c-5.774-5.022-11.549-10.045-17.323-15.068c-1.617-1.406-3.234-2.813-4.851-4.219c-0.249-0.216-0.498-0.433-0.747-0.65
					c-2.75-2.392-6.074-3.848-9.62-4.551c-3.534-0.701-7.175-0.965-10.759-0.523c-0.831,0.102-1.649,0.279-2.478,0.391
					c-1.515,0.205-3.029,0.41-4.544,0.614c-6.508,0.88-13.016,1.76-19.523,2.64c-8.208,1.11-16.417,2.22-24.625,3.329
					c-6.384,0.863-12.769,1.727-19.153,2.589c-1.407,0.19-2.814,0.381-4.22,0.571c-0.602,0.081-1.206,0.152-1.807,0.242
					c-2.856,0.425-5.552,1.741-7.661,3.722c-2.561,2.407-3.901,5.521-4.463,8.941c-0.337,2.05-0.673,4.099-1.01,6.149
					c-1.24,7.553-2.48,15.106-3.721,22.659c-1.171,7.131-2.342,14.262-3.513,21.392c-0.25,1.522-0.5,3.044-0.75,4.565
					c-0.78,4.746,1.016,9.643,4.748,12.678c4.635,3.768,11.404,3.882,16.182,0.319c2.328-1.735,4.044-4.228,4.839-7.03
					c0.154-0.545,0.27-1.102,0.394-1.655c1.416-6.258,2.832-12.516,4.248-18.774c1.581-6.986,3.162-13.973,4.742-20.958
					c0.163-0.722,0.327-1.445,0.49-2.168c0.077-0.342,0.046-0.31,0.399-0.316c2.344-0.041,4.687-0.083,7.03-0.124
					c7.791-0.137,15.582-0.275,23.372-0.413l5.19-0.092c0.649-0.011,1.441-0.177,2.128-0.287c1.249-0.2,2.495-0.411,3.742-0.625
					c2.731-0.468,5.459-0.952,8.188-1.434c0.301-0.053,0.603-0.106,0.904-0.16c-0.411,0.579-1.178,0.961-1.777,1.301
					c-1.101,0.626-2.25,1.168-3.405,1.685c-2.855,1.278-5.791,2.397-8.771,3.346c-0.338,0.108-0.676,0.213-1.016,0.314
					c-0.438,0.131-0.352,0.344-0.394,0.778c-0.075,0.772-0.154,1.544-0.236,2.315c-0.173,1.615-0.361,3.229-0.562,4.841
					c-0.445,3.576-0.949,7.145-1.507,10.705c-1.142,7.298-2.531,14.552-4.211,21.745c-1.117,4.784-2.48,9.494-3.796,14.225
					c-0.862,3.1-1.598,6.242-2.58,9.302c-0.785,2.442-1.147,4.999-1.108,7.563c0.02,1.3,0.039,2.6,0.059,3.9
					c0.101,6.598,0.201,13.196,0.301,19.794c0.126,8.267,0.251,16.535,0.377,24.803c0.084,5.544,0.168,11.087,0.253,16.631
					c0.008,0.547,0.156,1.199-0.107,1.693c-0.663,1.249-1.326,2.497-1.989,3.746c-3.033,5.71-6.066,11.42-9.099,17.13
					c-3.905,7.351-7.809,14.703-11.714,22.054c-3.092,5.821-6.184,11.642-9.276,17.463c-0.715,1.346-1.429,2.691-2.144,4.037
					c-1.793,3.375-2.404,7.187-1.447,10.925c1.487,5.81,6.528,10.225,12.458,10.896c5.25,0.594,10.505-1.789,13.551-6.127
					l5.74-8.177c4.209-5.996,8.418-11.992,12.627-17.988c4.759-6.779,9.518-13.558,14.276-20.337
					c3.563-5.076,7.126-10.151,10.689-15.227c0.788-1.122,1.575-2.244,2.363-3.366c0.672-0.957,1.263-1.964,1.722-3.043
					c0.935-2.196,1.15-4.469,1.35-6.815c0.411-4.818,0.821-9.634,1.232-14.452c0.676-7.924,1.351-15.848,2.027-23.772
					c0.186-2.185,0.373-4.37,0.559-6.555c0.014-0.162,0.028-0.324,0.041-0.486c0.008-0.095-2.534-0.596-2.808-0.663
					c-2.981-0.725-5.942-1.587-8.822-2.652c-0.911-0.337-1.817-0.692-2.69-1.119c-0.49-0.239-1.081-0.503-1.445-0.928
					c2.973,0.251,5.946,0.508,8.921,0.746c1.397,0.112,2.795,0.222,4.193,0.316c0.494,0.033,0.989,0.066,1.484,0.09
					c0.592,0.029,0.942,0.156,1.487,0.445c0.028-0.328-0.058-0.386,0.216-0.375c0.239,0.01,0.478,0.02,0.718,0.03
					c0.951,0.039,1.902,0.08,2.852,0.119c3.276,0.137,6.553,0.274,9.829,0.41c7.934,0.332,15.869,0.663,23.803,0.995
					c2.306,0.096,4.612,0.193,6.918,0.289c0.089,0.004,0.718-0.025,0.717,0.071c-0.005,0.452-0.009,0.904-0.015,1.356
					c-0.067,6.244-0.134,12.487-0.201,18.73c-0.085,7.923-0.17,15.846-0.255,23.769c-0.025,2.334-0.05,4.668-0.075,7.002
					c-0.034,3.107,0.443,6.079,2.065,8.796c3.015,5.048,8.909,7.841,14.701,6.949c5.667-0.873,10.421-5.169,11.878-10.747
					c0.327-1.253,0.468-2.566,0.659-3.846c0.34-2.294,0.681-4.589,1.021-6.883c1.096-7.385,2.192-14.769,3.288-22.154
					c1.193-8.039,2.386-16.078,3.579-24.117c0.743-5.006,1.486-10.012,2.228-15.018c0.365-2.458,0.5-4.901,0.008-7.364
					c-1.112-5.563-4.857-10.403-9.946-12.851c-2.635-1.268-5.445-1.624-8.296-2.022c-2.273-0.318-4.545-0.635-6.818-0.953
					c-7.861-1.098-15.721-2.197-23.582-3.296c-4.814-0.673-9.628-1.345-14.441-2.018c-0.004-0.001-0.008-0.001-0.011-0.002
					c1.083-6.98,2.027-13.982,3.026-20.974c0.931-6.522,1.37-13.079,1.515-19.644c0.087-3.969,0.118-7.938,0.163-11.908
					c0.442,0.463,0.662,1.191,0.871,1.781c0.378,1.07,0.673,2.169,0.945,3.27c0.695,2.813,1.226,5.674,1.629,8.545
					c0.188,1.342,0.347,2.689,0.442,4.041c0.032,0.464,0.013,0.421,0.35,0.647c0.909,0.607,1.818,1.214,2.728,1.821
					c5.845,3.903,11.691,7.805,17.536,11.708C299.223,237.993,299.807,238.385,300.391,238.777L300.391,238.777z"/>
			</g>
		</g>
	</g>
</g>
</svg>
