<?xml version="1.0" encoding="utf-8"?>
<!-- Generator: Adobe Illustrator 17.0.0, SVG Export Plug-In . SVG Version: 6.00 Build 0)  -->
<!DOCTYPE svg PUBLIC "-//W3C//DTD SVG 1.1//EN" "http://www.w3.org/Graphics/SVG/1.1/DTD/svg11.dtd">
<svg version="1.1" id="Ebene_6" xmlns="http://www.w3.org/2000/svg" xmlns:xlink="http://www.w3.org/1999/xlink" x="0px" y="0px"
	 width="512px" height="512px" viewBox="0 0 512 512" enable-background="new 0 0 512 512" xml:space="preserve">
<g>
	<g id="PassageNew_3_">
		<g id="All-Elements_3_" transform="translate(-52.000000, -245.000000)">
			<g id="carousel_1_" transform="translate(52.000000, 245.000000)">
				<path id="Shape_2_" d="M399.599,157.249c-3.637-22.058-23.02-45.799-56.984-45.799h-0.477
					c-20.573,0.141-43.188,0.205-71.169,0.205c-14.066,0-28.133-0.016-42.2-0.03c-19.579-0.021-39.158-0.043-58.734-0.022
					c-4.005,0.005-8.722,0.13-13.327,1.033c-27.34,5.354-45.083,27.439-45.199,56.264c-0.081,20.18-0.06,40.692-0.045,60.528
					c0.009,8.875,0.017,17.749,0.017,26.624l-0.004,20.302c-0.006,21.321-0.013,43.368,0.037,65.055
					c0.011,4.703,0.083,8.949,0.875,13.273c5.082,27.788,27.373,45.769,56.783,45.81c29.369,0.04,58.732,0.061,88.101,0.061
					c28.459,0,56.926-0.02,85.383-0.059c34.048-0.047,57.846-23.901,57.87-58.008c0.039-54.387,0.031-110.953-0.023-172.933
					C400.495,164.927,400.2,160.902,399.599,157.249z M372.21,342.302c-0.004,18.987-10.909,29.879-29.918,29.884
					c-57.536,0.016-115.07,0.016-172.606,0c-18.989-0.005-29.881-10.91-29.884-29.916c-0.01-57.503-0.01-115.004,0-172.508
					c0.003-18.973,10.907-29.86,29.914-29.874c11.682-0.01,23.36-0.01,35.041-0.01l51.707,0.005l51.365-0.005
					c11.495,0,22.994,0,34.489,0.01c18.994,0.015,29.889,10.916,29.893,29.907C372.221,227.297,372.221,284.801,372.21,342.302z"/>
				<path id="Path_12_" d="M462.352,191.076c-0.078-18.561-11.747-34.208-27.745-37.207c-5.195-0.972-10.387-1.107-15.222-1.107
					c-1.268,0-2.536,0.01-3.804,0.02c-2.614,0.02-5.23,0.043-7.832-0.03l-0.255-0.003c-0.948,0-1.801,0.139-2.488,0.251
					c-0.226,0.037-0.444,0.073-0.647,0.098l-3.676,0.44v27.415l17.078-0.007c2.588,0,5.155,0.003,7.723,0.011
					c7.897,0.025,11.748,4.337,11.77,13.179c0.021,8.325,0.016,16.652,0.012,24.978l-0.005,10.832l0.001,25.959
					c0,20.154,0.001,40.309-0.002,60.462c-0.002,10.661-3.489,14.625-12.87,14.631l-8.646-0.003c-2.719,0-5.442,0.004-8.161,0.021
					c-0.961,0.006-1.825,0.139-2.589,0.257c-0.263,0.04-0.522,0.08-0.776,0.112l-3.668,0.447v27.365h4.113
					c2.47,0,4.921,0.014,7.358,0.027c2.423,0.013,4.832,0.026,7.233,0.026c3.365,0,6.151-0.026,8.766-0.085
					c19.131-0.423,34.205-17.195,34.317-38.185C462.55,281.527,462.555,239.035,462.352,191.076z"/>
				<path id="Path_2_" d="M99.94,152.776c-2.428-0.014-4.84-0.027-7.242-0.027c-3.365,0-6.148,0.026-8.763,0.083
					c-18.797,0.405-34.176,17.59-34.282,38.307c-0.201,39.636-0.205,82.21-0.01,130.151c0.075,18.472,11.887,34.415,27.475,37.085
					c3.479,0.596,7.215,0.875,11.759,0.875c3.096,0,6.239-0.13,9.279-0.254c3.012-0.122,6.127-0.251,9.166-0.251h4.113v-22.177
					l-0.025-2.911l-2.325-1.259c-0.05-0.027-0.091-0.056-0.128-0.08c-0.415-0.264-1.279-0.815-2.501-0.826
					c-6.532-0.05-13.066-0.086-19.597-0.108c-8.378-0.029-12.114-4.258-12.117-13.711c-0.012-40.975-0.012-81.95,0-122.924
					c0.003-9.454,3.739-13.676,12.118-13.69c2.534-0.005,5.067-0.006,7.613-0.006l16.978,0.004v-28.251h-4.113
					C104.851,152.803,102.388,152.79,99.94,152.776z"/>
			</g>
		</g>
	</g>
</g>
</svg>
