<?xml version="1.0" encoding="utf-8"?>
<!-- Generator: Adobe Illustrator 17.0.0, SVG Export Plug-In . SVG Version: 6.00 Build 0)  -->
<!DOCTYPE svg PUBLIC "-//W3C//DTD SVG 1.1//EN" "http://www.w3.org/Graphics/SVG/1.1/DTD/svg11.dtd">
<svg version="1.1" id="Ebene_8" xmlns="http://www.w3.org/2000/svg" xmlns:xlink="http://www.w3.org/1999/xlink" x="0px" y="0px"
	 width="512px" height="512px" viewBox="0 0 512 512" enable-background="new 0 0 512 512" xml:space="preserve">
<g>
	<g id="PassageNew_2_">
		<g id="All-Elements_2_" transform="translate(-54.000000, -274.000000)">
			<g id="tile_1_" transform="translate(54.000000, 274.000000)">
				<path id="Shape_17_" d="M220.77,78H90.979C83.811,78,78,83.811,78,90.979v129.791c0,7.168,5.811,12.979,12.979,12.979h129.791
					c7.168,0,12.979-5.811,12.979-12.979V90.979C233.75,83.811,227.938,78,220.77,78z M207.791,207.791H103.958V103.958h103.833
					V207.791L207.791,207.791z"/>
				<path id="Shape_16_" d="M421.021,78H291.229c-7.168,0-12.979,5.811-12.979,12.979v129.791c0,7.168,5.811,12.979,12.979,12.979
					h129.791c7.168,0,12.979-5.811,12.979-12.979V90.979C434,83.811,428.188,78,421.021,78z M408.041,207.791H304.209V103.958
					h103.833V207.791z"/>
				<path id="Shape_15_" d="M220.77,278.25H90.979c-7.168,0-12.979,5.811-12.979,12.979v129.791C78,428.189,83.811,434,90.979,434
					h129.791c7.168,0,12.979-5.811,12.979-12.979V291.229C233.75,284.061,227.938,278.25,220.77,278.25z M207.791,408.041H103.958
					V304.209h103.833V408.041L207.791,408.041z"/>
				<path id="Shape_1_" d="M421.021,278.25H291.229c-7.168,0-12.979,5.811-12.979,12.979v129.791
					c0,7.168,5.811,12.979,12.979,12.979h129.791c7.168,0,12.979-5.811,12.979-12.979V291.229
					C434,284.061,428.188,278.25,421.021,278.25z M408.041,408.041H304.209V304.209h103.833V408.041z"/>
			</g>
		</g>
	</g>
</g>
</svg>
