<?xml version="1.0" encoding="utf-8"?>
<svg version="1.1" id="Ebene_5" x="0px" y="0px" width="512px" height="512px" viewBox="75.793 100 352.464 283.031" enable-background="new 0 0 512 512" xmlns="http://www.w3.org/2000/svg">
  <g>
    <path d="M424.369,246.227l-93.133-84.967c-2.896-2.642-8.02-2.642-10.916,0l-20.191,18.421c-3.016,2.751-3.016,7.211,0,9.963 l67.486,61.561l-67.482,61.572c-3.016,2.751-3.016,7.211,0,9.963l20.191,18.421c1.448,1.321,3.413,2.068,5.46,2.068 c2.043,0,4.012-0.747,5.46-2.068l93.125-84.963C427.385,253.442,427.385,248.979,424.369,246.227z"/>
    <path d="M205.892,184.736c0-1.866-0.811-3.659-2.263-4.979l-20.19-18.414c-1.448-1.321-3.413-2.064-5.46-2.064 c-2.046,0-4.012,0.743-5.46,2.064l-93.131,84.926c-3.016,2.75-3.016,7.208,0,9.962l93.127,84.93c1.448,1.32,3.413,2.067,5.46,2.067 s4.012-0.747,5.46-2.067l20.19-18.414c3.016-2.747,3.016-7.205-0.008-9.955l-67.47-61.541l67.481-61.537 C205.077,188.394,205.892,186.605,205.892,184.736z"/>
    <path d="M293.145,109.213l-13.966-4.801c-3.486-1.205-7.156,1.124-8.184,5.189l-64.834,255.764 c-0.494,1.953-0.303,4.053,0.53,5.837c0.833,1.792,2.247,3.116,3.921,3.696l13.966,4.801c0.623,0.215,1.252,0.319,1.868,0.319 c2.843,0,5.469-2.165,6.316-5.507l64.834-255.768c0.494-1.953,0.306-4.053-0.53-5.837 C296.229,111.117,294.819,109.789,293.145,109.213z"/>
  </g>
</svg>