<?xml version="1.0" encoding="utf-8"?>
<!-- Generator: Adobe Illustrator 17.0.0, SVG Export Plug-In . SVG Version: 6.00 Build 0)  -->
<!DOCTYPE svg PUBLIC "-//W3C//DTD SVG 1.1//EN" "http://www.w3.org/Graphics/SVG/1.1/DTD/svg11.dtd">
<svg version="1.1" id="Ebene_9" xmlns="http://www.w3.org/2000/svg" xmlns:xlink="http://www.w3.org/1999/xlink" x="0px" y="0px"
	 width="512px" height="512px" viewBox="0 0 512 512" enable-background="new 0 0 512 512" xml:space="preserve">
<g>
	<g id="PassageNew_11_">
		<g id="All-Elements_11_" transform="translate(-54.000000, -335.000000)">
			<g id="checked_1_" transform="translate(54.000000, 335.000000)">
				<path id="Shape_13_" d="M256,106.011c-82.701,0-149.989,67.288-149.989,149.989S173.299,405.989,256,405.989
					S405.989,338.701,405.989,256S338.701,106.011,256,106.011z M339.829,216.529l-95.858,95.106
					c-5.639,5.639-14.661,6.015-20.675,0.376l-50.748-46.237c-6.015-5.639-6.391-15.037-1.128-21.051
					c5.639-6.015,15.037-6.391,21.051-0.752l40.223,36.84l85.708-85.708c6.015-6.015,15.412-6.015,21.427,0
					S345.843,210.514,339.829,216.529z"/>
			</g>
		</g>
	</g>
</g>
</svg>
