<?xml version="1.0" encoding="utf-8"?>
<svg version="1.1" id="Ebene_4" x="0px" y="0px" width="512px" height="512px" viewBox="71.023 72.613 358.294 358.294" enable-background="new 0 0 512 512" xmlns="http://www.w3.org/2000/svg">
  <g>
    <g id="PassageNew_5_">
      <g id="All-Elements_5_" transform="translate(-54.000000, -184.000000)">
        <g id="video_1_" transform="translate(54.000000, 184.000000)">
          <path id="Shape_5_" d="M427.446,110.53c-0.003-3.288-0.341-6.664-1.158-9.848c-4.215-16.434-18.775-27.144-36.889-27.162 c-46.34-0.045-92.682-0.015-139.024-0.015c-46.465,0-92.928-0.028-139.393,0.012c-22.397,0.019-38.445,15.456-38.459,37.006 c-0.037,58.841-0.036,117.683,0,176.524c0.013,21.543,16.069,37.013,38.452,37.02c92.682,0.031,185.365,0.031,278.046,0 c22.383-0.008,38.444-15.471,38.459-37.015C427.521,228.211,427.513,169.37,427.446,110.53z M403.814,286.155 c-0.001,10.118-5.16,15.129-15.588,15.13c-92.164,0.003-184.329,0.003-276.493,0c-10.396-0.001-15.539-5.029-15.543-15.166 c0-58.232,0-116.464,0-174.697c0.003-10.133,5.139-15.12,15.582-15.122c46.205-0.003,92.41-0.003,138.616-0.003 c45.836,0,91.672,0,137.507,0c10.804,0.002,15.918,4.868,15.919,15.161C403.817,169.69,403.817,227.922,403.814,286.155z"/>
          <path id="Shape_4_" d="M393.823,374.837c-13.157-0.023-26.315-0.106-39.47,0.074c-2.77,0.039-3.891-0.856-4.873-3.473 c-6.085-16.209-20.875-26.503-37.623-26.465c-16.479,0.039-31.353,10.456-37.243,26.463c-1.084,2.948-2.565,3.451-5.27,3.448 c-60.715-0.07-121.43-0.053-182.146-0.053c-1.207,0-2.417-0.044-3.621,0.025c-5.854,0.34-10.545,4.967-11.041,10.85 c-0.508,6.031,3.523,11.623,9.355,12.784c1.521,0.303,3.123,0.232,4.688,0.233c60.836,0.011,121.672,0.035,182.508-0.068 c3.085-0.005,4.461,0.781,5.719,3.874c6.163,15.154,17.446,23.996,33.237,25.709c14.917,1.619,27.249-4.184,36.279-16.584 c2.781-3.819,4.63-8.362,7.046-12.832c-0.181,0.04,0.054-0.057,0.289-0.058c14.002-0.017,28.003-0.014,42.005-0.04 c7.75-0.015,12.922-4.772,12.958-11.867C406.657,379.743,401.483,374.851,393.823,374.837z M312.173,404.677 c-9.705,0.002-17.398-7.963-17.373-17.987c0.025-9.832,7.671-17.745,17.188-17.788c9.603-0.042,17.465,8.047,17.481,17.986 C329.484,396.537,321.572,404.675,312.173,404.677z"/>
          <path id="Shape_3_" d="M316.048,198.258c-32.541-19.836-65.127-39.601-97.662-59.447c-4.536-2.767-9.11-3.758-13.98-1.143 c-4.997,2.682-6.639,7.047-6.613,12.425c0.095,19.653,0.038,39.308,0.038,58.961c0.001,20.035,0.025,40.068-0.017,60.103 c-0.011,4.973,1.851,8.94,6.297,11.461c4.619,2.619,9.201,2.079,13.654-0.633c32.776-19.953,65.586-39.85,98.327-59.855 C325.464,214.407,325.397,203.957,316.048,198.258z M223.073,248.07c0-26.106,0-51.597,0-77.694 c21.317,12.987,42.209,25.716,63.75,38.839C265.39,222.278,244.44,235.046,223.073,248.07z"/>
        </g>
      </g>
    </g>
  </g>
</svg>