<?xml version="1.0" encoding="utf-8"?>
<!-- Generator: Adobe Illustrator 17.0.0, SVG Export Plug-In . SVG Version: 6.00 Build 0)  -->
<!DOCTYPE svg PUBLIC "-//W3C//DTD SVG 1.1//EN" "http://www.w3.org/Graphics/SVG/1.1/DTD/svg11.dtd">
<svg version="1.1" id="Ebene_2" xmlns="http://www.w3.org/2000/svg" xmlns:xlink="http://www.w3.org/1999/xlink" x="0px" y="0px"
	 width="512px" height="512px" viewBox="0 0 512 512" enable-background="new 0 0 512 512" xml:space="preserve">
<g>
	<path d="M405.214,263.339H96.786c-16.717,0-30.268,13.552-30.268,30.268v91.625c0,16.717,13.552,30.268,30.268,30.268h308.427
		c16.717,0,30.268-13.552,30.268-30.268v-91.625C435.482,276.891,421.93,263.339,405.214,263.339z M414.482,385.232
		c0,5.111-4.158,9.268-9.268,9.268H96.786c-5.111,0-9.268-4.158-9.268-9.268v-91.625c0-5.11,4.158-9.268,9.268-9.268h308.427
		c5.111,0,9.268,4.158,9.268,9.268V385.232z"/>
	<path d="M96.786,235.161h308.427c16.717,0,30.268-13.552,30.268-30.268v-91.625C435.482,96.552,421.93,83,405.214,83H96.786
		c-16.717,0-30.268,13.552-30.268,30.268v91.625C66.518,221.609,80.07,235.161,96.786,235.161z"/>
</g>
</svg>
