<?xml version="1.0" encoding="utf-8"?>
<!-- Generator: Adobe Illustrator 17.0.0, SVG Export Plug-In . SVG Version: 6.00 Build 0)  -->
<!DOCTYPE svg PUBLIC "-//W3C//DTD SVG 1.1//EN" "http://www.w3.org/Graphics/SVG/1.1/DTD/svg11.dtd">
<svg version="1.1" id="Ebene_1" xmlns="http://www.w3.org/2000/svg" xmlns:xlink="http://www.w3.org/1999/xlink" x="0px" y="0px"
	 width="512px" height="512px" viewBox="0 0 512 512" enable-background="new 0 0 512 512" xml:space="preserve">
<path d="M205.257,38.143c68.309,0.618,130.426,43.722,154.455,107.879c1.232,3.29,2.999,5.116,6.346,6.485
	c58.747,24.018,95.121,67.061,105.315,129.755c13.939,85.722-42.161,167.311-126.868,187.253
	c-80.164,18.873-163.072-25.322-192.112-102.557c-1.441-3.832-3.616-5.621-7.298-7.163
	c-59.284-24.821-95.572-68.553-104.889-132.413C27.336,139.169,88.849,56.261,177.038,41.289
	C186.354,39.708,195.847,39.167,205.257,38.143z M330.269,142.96c-19.815-44.117-75.467-87.678-146.484-77.054
	C121.034,75.294,68.094,127.808,64.18,197.783c-1.843,32.959,7.234,62.986,26.685,89.715c13.601,18.691,30.816,33.131,51.823,43.487
	c-6.042-54.585,8.664-101.937,47.234-140.578C228.615,151.644,276.104,136.941,330.269,142.96z M181.769,369.605
	c17.71,40.39,70.061,85.813,141.276,77.77c66.17-7.473,120.097-61.429,124.677-131.22c4.353-66.331-38.417-116.548-78.439-134.05
	C384.607,290.761,290.507,385.062,181.769,369.605z M295.25,312.661c5.781-5.658,11.676-11.428,17.306-16.938
	c-32.256-32.269-63.844-63.869-96.132-96.17c-5.655,5.666-11.504,11.525-17.123,17.156
	C231.56,248.969,263.152,280.562,295.25,312.661z M184.039,239.028c-3.219,7.525-6.244,14.781-9.438,21.961
	c-1.05,2.36-0.353,3.832,1.381,5.487c4.607,4.398,9.05,8.969,13.554,13.475c18.719,18.725,37.423,37.463,56.189,56.14
	c0.978,0.973,2.815,2.309,3.68,1.979c7.973-3.043,15.82-6.416,23.898-9.774C243.315,298.307,214.095,269.086,184.039,239.028z
	 M327.948,273.143c2.689-6.039,5.228-12.286,8.229-18.301c2.207-4.423,1.439-7.314-2.181-10.87
	c-22.723-22.322-45.145-44.952-67.717-67.428c-0.985-0.981-2.81-2.362-3.666-2.036c-7.981,3.035-15.835,6.403-23.658,9.646
	C268.916,214.114,298.201,243.397,327.948,273.143z M294.885,167.268c16.815,16.826,33.307,33.328,49.72,49.752
	c1.527-14.54,0.187-29.378-3.289-44.04c-0.245-1.032-2.149-2.168-3.425-2.377c-7.659-1.254-15.332-2.614-23.056-3.225
	C308.147,166.85,301.384,167.268,294.885,167.268z M167.672,294.887c-0.157,0.629-0.365,1.164-0.416,1.714
	c-1.327,14.352-0.005,28.522,3.246,42.509c0.276,1.187,2.128,2.548,3.473,2.862c12.737,2.968,25.669,4.024,38.733,3.352
	c1.567-0.081,3.12-0.421,4.734-0.648C200.719,327.946,184.349,311.57,167.672,294.887z"/>
</svg>
