<svg width="22" height="22" viewBox="0 0 22 22" xmlns="http://www.w3.org/2000/svg">
    <path d="M22 11a11.005 11.005 0 0 0-5.796-9.693 11.019 11.019 0 0 0-10.58.095 11.013 11.013 0 0 0-4.333 4.424A11.021 11.021 0 0 0 0 11c0 1.957.521 3.88 1.507 5.56a11.013 11.013 0 0 0 4.506 4.247A10.883 10.883 0 0 0 11 22c1.966 0 3.896-.526 5.582-1.52a11.018 11.018 0 0 0 4.21-4.463v-.001A11.03 11.03 0 0 0 22 11zM2.466 14.921a9.398 9.398 0 0 1-.15-7.495l2.748 1.989A6.122 6.122 0 0 0 4.857 11c0 .625.092 1.237.276 1.825l-1.878 1.476-.789.62zm7.087.375A4.541 4.541 0 0 1 6.83 12.78 4.504 4.504 0 0 1 6.466 11 4.54 4.54 0 0 1 11 6.466c.562 0 1.112.103 1.635.305a4.547 4.547 0 0 1 2.593 2.59 4.513 4.513 0 0 1 .06 3.112 4.546 4.546 0 0 1-2.488 2.689 4.523 4.523 0 0 1-3.245.134zM19.606 7.24A9.41 9.41 0 0 1 20.39 11a9.299 9.299 0 0 1-.641 3.42l-2.77-2.006a6.126 6.126 0 0 0-.06-3.06l2.43-1.911.257-.203zM11 1.61c1.239 0 2.468.246 3.604.717l-1.987 2.746a6.174 6.174 0 0 0-3.24.001l-2.114-2.69A9.412 9.412 0 0 1 11 1.61zm0 18.78a9.302 9.302 0 0 1-3.39-.63l2.009-2.774a6.125 6.125 0 0 0 3.23-.126l1.06 1.348 1.034 1.316A9.395 9.395 0 0 1 11 20.39z" fill="#C3C6D1" fill-rule="nonzero"/>
</svg>
