<?xml version="1.0" encoding="utf-8"?>
<!-- Generator: Adobe Illustrator 17.0.0, SVG Export Plug-In . SVG Version: 6.00 Build 0)  -->
<!DOCTYPE svg PUBLIC "-//W3C//DTD SVG 1.1//EN" "http://www.w3.org/Graphics/SVG/1.1/DTD/svg11.dtd">
<svg version="1.1" id="Ebene_1" xmlns="http://www.w3.org/2000/svg" xmlns:xlink="http://www.w3.org/1999/xlink" x="0px" y="0px"
	 width="512px" height="512px" viewBox="0 0 512 512" enable-background="new 0 0 512 512" xml:space="preserve">
<path d="M478.583,200.513c-3.418-10.29-10.957-16.302-21.8-17.386c-16.164-1.614-32.609-3.107-48.513-4.55l-5.42-0.492
	c-27.522-2.5-50.015-4.505-70.784-6.309c-1.846-0.16-2.563-0.708-3.339-2.552c-6.389-15.197-12.985-30.601-19.364-45.498
	c-2.146-5.009-4.29-10.018-6.432-15.029c-2.052-4.803-4.107-9.604-6.163-14.406c-5.402-12.62-10.989-25.669-16.422-38.527
	c-4.604-10.895-12.796-16.74-24.35-17.373l-0.115-0.006l-0.115,0.007c-11.387,0.684-19.5,6.53-24.114,17.375
	c-7.022,16.506-14.071,33.002-21.12,49.497c-8.899,20.824-18.101,42.357-27.095,63.56c-0.911,2.147-1.795,2.822-3.943,3.011
	c-30.97,2.714-62.45,5.557-92.894,8.305l-6.794,0.614c-8.636,0.779-16.417,1.491-24.181,2.303
	c-11.317,1.183-19.052,7.372-22.369,17.898c-3.26,10.347-0.404,19.839,8.261,27.451c31.433,27.61,62.166,54.591,92.585,81.13
	c2.191,1.912,2.626,3.136,2.026,5.69c-4.708,20.023-9.337,40.415-13.813,60.136c-1.357,5.977-2.713,11.953-4.074,17.929
	l-2.609,11.437c-2.304,10.084-4.686,20.511-6.976,30.78c-1.766,7.92-0.362,15.632,3.953,21.715
	c4.175,5.888,10.67,9.625,18.287,10.525c5.646,0.668,11.179-0.782,17.663-4.67c13.984-8.383,27.978-16.751,41.971-25.119
	c20.594-12.315,41.889-25.05,62.804-37.626c1.119-0.673,1.955-0.973,2.712-0.973c0.733,0,1.556,0.29,2.59,0.913
	c21.521,12.953,43.438,26.061,64.634,38.735c13.506,8.077,27.011,16.154,40.508,24.245c5.166,3.098,10.27,4.668,15.168,4.668
	c5.098,0,10.02-1.694,14.628-5.034c9.118-6.609,12.338-16.104,9.567-28.222c-3.437-15.029-6.853-30.063-10.269-45.098
	c-5.537-24.368-11.263-49.565-16.982-74.329c-0.611-2.645-0.185-3.864,1.983-5.675c5.378-4.492,10.705-9.205,15.858-13.762
	c2.02-1.786,4.04-3.573,6.066-5.351c6.581-5.771,13.166-11.537,19.75-17.305c16.824-14.735,34.222-29.972,51.273-45.027
	C479.388,220.558,482.07,211.012,478.583,200.513z M343.895,317.289c6.521,28.517,13.082,57.527,19.428,85.584l6.029,26.651
	l-3.387-2.013c-4.892-2.906-9.635-5.724-14.37-8.556c-7.27-4.347-14.545-8.684-21.82-13.02
	c-18.937-11.288-38.518-22.96-57.659-34.62c-5.513-3.358-10.777-4.99-16.096-4.99c-5.292,0-10.529,1.615-16.01,4.938
	c-23.481,14.237-47.463,28.541-70.656,42.374c-8.771,5.231-17.542,10.463-26.308,15.703c-0.132,0.079-0.265,0.158-0.399,0.236
	l1.387-6.209c1.661-7.445,3.277-14.692,4.917-21.935l4.33-19.15c4.803-21.26,9.77-43.243,14.762-64.838
	c2.639-11.418-0.354-20.698-9.152-28.371c-19.988-17.434-40.261-35.218-59.867-52.417c-8.735-7.662-17.469-15.324-26.208-22.981
	c-0.098-0.086-0.197-0.171-0.297-0.257c0.035-0.003,0.069-0.007,0.104-0.011c2.995-0.322,5.581-0.601,8.17-0.836
	c12.323-1.119,24.646-2.23,36.97-3.343c23.102-2.084,46.991-4.24,70.482-6.406c10.546-0.972,18.185-6.864,22.704-17.513
	c10.962-25.828,22.178-52.06,33.025-77.427l11.313-26.465c0.226-0.528,0.456-1.055,0.707-1.621c0.554,1.24,1.047,2.352,1.525,3.47
	c3.852,9.019,7.713,18.035,11.573,27.05c10.387,24.254,21.127,49.333,31.509,74.072c4.919,11.72,13.041,17.672,25.562,18.729
	c28.359,2.397,57.18,5.055,85.05,7.624c9.428,0.869,18.854,1.738,28.283,2.6l-0.749,0.668c-2.625,2.342-5.095,4.545-7.582,6.728
	l-19.038,16.713c-19.381,17.019-39.421,34.616-59.191,51.852C344.271,296.856,341.315,306.01,343.895,317.289z"/>
</svg>
