<?xml version="1.0" encoding="utf-8"?>
<!-- Generator: Adobe Illustrator 17.0.0, SVG Export Plug-In . SVG Version: 6.00 Build 0)  -->
<!DOCTYPE svg PUBLIC "-//W3C//DTD SVG 1.1//EN" "http://www.w3.org/Graphics/SVG/1.1/DTD/svg11.dtd">
<svg version="1.1" id="Ebene_1" xmlns="http://www.w3.org/2000/svg" xmlns:xlink="http://www.w3.org/1999/xlink" x="0px" y="0px"
	 width="512px" height="512px" viewBox="0 0 512 512" enable-background="new 0 0 512 512" xml:space="preserve">
<g>
	<path d="M467.642,114.955c-0.002-27.991-17.91-45.911-45.877-45.912c-74.205-0.005-148.41-0.002-222.615-0.002
		c-38.587,0-77.174-0.085-115.76,0.034c-23.855,0.073-43.075,18.449-43.136,41.852c-0.198,76.578-0.089,153.158-0.05,229.737
		c0.004,7.256,1.916,14.121,5.669,20.329c8.31,13.745,20.577,21.124,36.65,21.47c14.206,0.306,28.424,0.064,43.127,0.064
		c0,2.327,0,3.953,0,5.578c0.001,21.668-0.003,43.336,0.006,65.004c0.003,6.022,2.545,10.628,7.96,13.364
		c5.465,2.762,10.639,1.814,15.43-1.777c1.424-1.068,2.799-2.201,4.189-3.313c31.748-25.392,63.465-50.823,95.313-76.09
		c1.986-1.576,4.991-2.635,7.525-2.641c55.357-0.148,110.714-0.079,166.071-0.176c4.555-0.008,9.256-0.34,13.637-1.486
		c19.412-5.077,31.836-21.767,31.847-42.529C467.668,263.959,467.648,189.457,467.642,114.955z M422.635,354.017
		c-57.126,0.008-114.252,0.082-171.377-0.102c-6.652-0.021-11.93,1.886-17.047,6.029c-25.248,20.442-50.678,40.659-76.046,60.953
		c-1.036,0.829-2.094,1.63-3.999,3.11c0-2.393,0-3.827,0-5.261c-0.001-16.618,0.056-33.237-0.026-49.855
		c-0.044-8.847-6.006-14.809-14.837-14.846c-17.953-0.074-35.908-0.016-53.861-0.026c-11.311-0.006-16.765-5.372-16.766-16.527
		c-0.007-74.486-0.007-148.972,0-223.458c0.001-10.884,5.551-16.472,16.367-16.472c112.62-0.006,225.239-0.007,337.859,0.001
		c10.568,0.001,16.218,5.629,16.22,16.183c0.012,74.635,0.011,149.269,0.001,223.904
		C439.122,348.46,433.519,354.015,422.635,354.017z"/>
	<path d="M366.879,183.051c-37.67-0.045-75.341-0.018-113.011-0.018c-1.483,0-2.966,0-4.449,0
		c-36.336,0.001-72.671-0.026-109.007,0.024c-7.877,0.011-13.911,5.361-14.69,12.691c-0.763,7.174,4.048,13.923,11.217,15.444
		c2,0.424,4.127,0.344,6.195,0.344c73.858,0.015,147.716,0.013,221.573,0.011c1.483,0,2.982,0.1,4.445-0.078
		c5.8-0.705,9.939-3.767,12.042-9.218C384.903,192.635,377.788,183.064,366.879,183.051z"/>
	<path d="M253.792,240.065c-18.972-0.096-37.945-0.032-56.918-0.034c-18.231-0.002-36.463-0.011-54.694,0.012
		c-1.771,0.002-3.591-0.034-5.304,0.339c-7.174,1.562-11.938,8.263-11.153,15.47c0.791,7.269,6.894,12.658,14.725,12.668
		c37.649,0.049,75.298,0.026,112.947,0.003c1.319-0.001,2.678-0.127,3.951-0.455c6.972-1.801,11.512-8.351,10.733-15.361
		C267.286,245.57,261.307,240.103,253.792,240.065z"/>
</g>
</svg>
