<svg width="16" height="16" viewBox="0 0 16 16" xmlns="http://www.w3.org/2000/svg">
    <g fill="#FFF" fill-rule="nonzero">
        <path d="M11.9 16H2.1C.942 16 0 15.058 0 13.9V4.1C0 2.942.942 2 2.1 2h5.6a.7.7 0 1 1 0 1.4H2.1a.7.7 0 0 0-.7.7v9.8a.7.7 0 0 0 .7.7h9.8a.7.7 0 0 0 .7-.7V8.3a.7.7 0 1 1 1.4 0v5.6c0 1.158-.942 2.1-2.1 2.1z"/>
        <path d="M15.308 0h-4.154a.692.692 0 0 0-.49 1.182l1.588 1.587-5.049 5.05a.692.692 0 1 0 .979.978l5.049-5.049 1.587 1.588A.693.693 0 0 0 16 4.846V.692A.692.692 0 0 0 15.308 0z"/>
    </g>
</svg>
