<svg viewBox="0 0 85 81" fill="none" xmlns="http://www.w3.org/2000/svg">
<path fill-rule="evenodd" clip-rule="evenodd" d="M7.19873 9.08695L77.8153 0.125732C81.8298 0.125732 85 3.48539 85 7.4999V61.0042C85 65.0187 82.0196 67.2897 78.005 67.2897H37.1816L43.7397 60.2223C44.2707 59.6059 44.2111 59.218 43.5947 58.6872C42.9751 58.1562 42.0671 58.2271 41.5361 58.8435L34.2085 67.4139L22.1413 80.7876V67.2897H19.0117H10.1627H7.21299C3.19848 67.2897 0 65.0187 0 61.0042V16.4611C0 12.4466 3.18422 9.08695 7.19873 9.08695Z" fill="#3E50F1"/>
<path fill-rule="evenodd" clip-rule="evenodd" d="M42 22C40.8955 22 40 22.8955 40 24V34H30C28.8955 34 28 34.8955 28 36V37C28 38.1045 28.8955 39 30 39H40V48C40 49.1045 40.8955 50 42 50H43C44.1045 50 45 49.1045 45 48V39H54C55.1045 39 56 38.1045 56 37V36C56 34.8955 55.1045 34 54 34H45V24C45 22.8955 44.1045 22 43 22H42Z" fill="white"/>
</svg>
