<?xml version="1.0" encoding="utf-8"?>
<!-- Generator: Adobe Illustrator 17.0.0, SVG Export Plug-In . SVG Version: 6.00 Build 0)  -->
<!DOCTYPE svg PUBLIC "-//W3C//DTD SVG 1.1//EN" "http://www.w3.org/Graphics/SVG/1.1/DTD/svg11.dtd">
<svg version="1.1" id="Ebene_1" xmlns="http://www.w3.org/2000/svg" xmlns:xlink="http://www.w3.org/1999/xlink" x="0px" y="0px"
	 width="512px" height="512px" viewBox="0 0 512 512" enable-background="new 0 0 512 512" xml:space="preserve">
<path d="M310.824,310.751c0,2.407,0,4.152,0,5.897c0,50.167-0.172,100.334,0.145,150.499c0.063,10.019-6.497,15.034-14.782,14.917
	c-26.917-0.38-53.843-0.134-80.765-0.146c-9.693-0.004-14.237-4.554-14.239-14.281c-0.011-50.314-0.005-100.628-0.005-150.941
	c0-1.749,0-3.499,0-5.943c-1.968,0-3.662,0-5.357,0c-50.314,0-100.628,0.003-150.941-0.003
	c-10.577-0.001-14.869-4.329-14.871-14.969c-0.004-26.481-0.003-52.962,0-79.443c0.001-10.994,4.18-15.229,15.052-15.229
	c50.02-0.004,100.039-0.002,150.059-0.002c1.76,0,3.52,0,6.059,0c0-1.876,0-3.559,0-5.242c0-50.314-0.002-100.628,0.002-150.941
	c0.001-10.67,4.281-14.984,14.858-14.986c26.775-0.005,53.55-0.008,80.325,0.001c9.985,0.003,14.454,4.479,14.455,14.498
	c0.008,50.314,0.004,100.628,0.004,150.941c0,1.73,0,3.459,0,5.728c2.142,0,3.857,0,5.572,0c50.167,0,100.333-0.002,150.5,0.002
	c10.922,0.001,15.096,4.204,15.097,15.183c0.003,26.481,0.004,52.962,0,79.443c-0.002,10.688-4.264,15.014-14.824,15.015
	c-50.167,0.006-100.333,0.003-150.5,0.003C314.927,310.751,313.184,310.751,310.824,310.751z"/>
</svg>
