<?xml version="1.0" encoding="utf-8"?>
<!-- Generator: Adobe Illustrator 17.0.0, SVG Export Plug-In . SVG Version: 6.00 Build 0)  -->
<!DOCTYPE svg PUBLIC "-//W3C//DTD SVG 1.1//EN" "http://www.w3.org/Graphics/SVG/1.1/DTD/svg11.dtd">
<svg version="1.1" id="Ebene_1" xmlns="http://www.w3.org/2000/svg" xmlns:xlink="http://www.w3.org/1999/xlink" x="0px" y="0px"
	 width="512px" height="512px" viewBox="0 0 512 512" enable-background="new 0 0 512 512" xml:space="preserve">
<g>
	<path d="M470.488,150.059c0.001-18.805,0.002-37.61-0.009-56.415c-0.016-29.151-20.413-49.533-49.604-49.564
		c-9.817-0.011-19.632-0.014-29.449-0.014l-46.227,0.008c-6.891,0-13.78,0.007-20.671,0.015c-6.889,0.007-13.777,0.015-20.666,0.015
		c-14.713,0-26.053-0.034-36.771-0.111l-0.202,0c-6.211,0-11.202,2.103-15.707,6.618c-45.369,45.471-91.548,91.653-136.206,136.315
		c-17.536,17.537-35.071,35.074-52.604,52.613c-2.022,2.023-3.981,4.026-5.716,6.277c-15.355,19.922-13.184,45.807,5.402,64.409
		c47.267,47.311,95.244,95.277,142.599,142.569c9.854,9.842,22.204,15.261,34.774,15.261c12.724,0,25.273-5.539,35.336-15.596
		c25.231-25.214,50.454-50.435,75.677-75.656c38.025-38.022,76.05-76.045,114.103-114.04c4.1-4.095,6.005-8.704,5.995-14.504
		C470.486,215.526,470.487,182.244,470.488,150.059z M272.85,71.075l0.048,2.498c14.777,0.062,29.527,0.07,40.727,0.07l77.252-0.013
		c10.024,0,20.051,0.002,30.074,0.008c12.688,0.008,19.965,7.239,19.969,19.839l0.002,7.203
		c0.016,46.293,0.031,94.163-0.109,141.241c-0.005,1.434-0.869,3.464-1.929,4.526c-37.606,37.717-75.891,76.02-112.913,113.062
		c-23.927,23.938-47.852,47.877-71.767,71.826c-4.751,4.759-9.394,7.072-14.192,7.072c0,0-0.001,0-0.001,0
		c-1.616-0.001-3.303-0.263-5.011-0.778c-3.153-0.952-6.269-2.747-8.333-4.801c-53.35-53.1-105.48-105.282-144.937-144.811
		c-7.566-7.58-7.548-18.31,0.044-26.094c5.623-5.765,11.438-11.545,17.061-17.136c2.494-2.479,4.988-4.959,7.474-7.446l23.341-23.34
		c45.333-45.333,92.209-92.208,138.268-138.359c1.525-1.529,2.816-2.07,4.933-2.07L272.85,71.075L272.85,71.075z"/>
	<path d="M359.548,195.726l0.277,0.001c22.453,0,40.875-18.22,41.064-40.616c0.093-11.001-4.146-21.39-11.935-29.252
		c-7.779-7.853-18.109-12.183-29.13-12.194c-22.529,0-40.918,18.354-40.991,40.915C318.76,177.501,336.644,195.575,359.548,195.726z
		 M359.796,143.227v-2.5l0,0l0.005,2.5c3.049,0.001,5.943,1.226,8.15,3.449c2.199,2.216,3.398,5.105,3.377,8.137
		c-0.046,6.362-5.122,11.345-11.557,11.345l-0.126-0.001c-3.104-0.032-5.96-1.227-8.042-3.365c-2.114-2.172-3.25-5.124-3.198-8.312
		C348.505,148.275,353.615,143.227,359.796,143.227z"/>
</g>
</svg>
