<?xml version="1.0" encoding="utf-8"?>
<!-- Generator: Adobe Illustrator 17.0.0, SVG Export Plug-In . SVG Version: 6.00 Build 0)  -->
<!DOCTYPE svg PUBLIC "-//W3C//DTD SVG 1.1//EN" "http://www.w3.org/Graphics/SVG/1.1/DTD/svg11.dtd">
<svg version="1.1" id="Ebene_1" xmlns="http://www.w3.org/2000/svg" xmlns:xlink="http://www.w3.org/1999/xlink" x="0px" y="0px"
	 width="512px" height="512px" viewBox="0 0 512 512" enable-background="new 0 0 512 512" xml:space="preserve">
<path d="M457.44,212.526c-0.522-0.764-1.168-1.595-1.994-1.965c-1.561-0.701-1.379-1.469-0.981-3.153l0.041-0.174
	c0.561-2.386,1.191-4.813,1.802-7.161c1.658-6.38,3.373-12.978,3.891-19.58c3.355-42.727-13.405-76.581-49.817-100.623
	c-21.801-14.395-47.159-21.392-77.525-21.392c-4.426,0-9.037,0.152-13.706,0.453c-2.765,0.177-4.705-0.013-6.953-2.657
	c-23.562-27.706-51.108-40.973-84.35-40.611c-19.84,0.228-38.255,5.412-54.732,15.408c-25.041,15.191-44.298,37.358-58.874,67.77
	c-0.908,1.895-1.423,4.377-1.449,6.992c-0.023,2.386-0.412,3.164-2.941,3.717c-34.203,7.482-58.354,24.718-73.833,52.693
	c-8.679,15.687-13.405,32.148-14.048,48.927c-1.146,29.953,7.602,58.893,26.743,88.473c1.049,1.62,2.332,3.097,3.689,4.659
	c0.612,0.704,1.245,1.434,1.889,2.212l-0.127,0.421c-0.215,0.716-0.505,1.678-0.802,2.638c-10.13,32.926-7.207,62.07,8.936,89.101
	c9.966,16.684,23.136,29.851,39.144,39.134c24.766,14.361,52.734,20.506,85.798,18.828c1.979-0.101,3.907-0.415,6.14-0.779
	c1.03-0.168,2.117-0.345,3.288-0.513c0.26,0.267,0.75,0.772,1.213,1.304c21.486,24.465,50.345,37.938,81.259,37.938
	c19.806,0,39.678-5.617,57.468-16.244c23.527-14.055,42.086-34.942,56.736-63.858l0.162-0.318c0.898-1.769,1.829-3.597,2.015-5.516
	c0.185-1.91,0.799-2.333,2.677-2.711c26.207-5.271,48.411-18.319,64.211-37.733c15.401-18.923,23.711-42.513,24.033-68.22
	C486.814,270.208,477.328,241.601,457.44,212.526z M219.72,442.549c3.792-2.305,7.374-4.482,11.037-6.65
	c8.219-4.865,16.441-9.727,24.662-14.588c21.065-12.456,42.848-25.336,64.238-38.06c1.272-0.757,2.682-2.458,2.738-3.889
	c1.257-32.039,2.42-64.619,3.545-96.125l1.401-39.3c0.09,0.033,0.176,0.064,0.261,0.095c0.505,0.184,0.903,0.329,1.249,0.53
	c4.355,2.538,8.708,5.08,13.061,7.623c10.293,6.014,20.937,12.232,31.449,18.275c1.704,0.979,2.021,2.118,2.03,4.009
	c0.043,7.798,0.101,15.596,0.157,23.394c0.087,11.862,0.178,24.129,0.213,36.193c0.066,22.343,0.051,45.318-0.046,68.287
	c-0.008,1.901-0.515,3.973-1.356,5.541c-13.904,25.876-30.869,44.176-51.864,55.573C308.605,470.996,294.029,475,279.172,475
	c-0.002,0-0.004,0-0.006,0c-23.305,0-45.761-10.018-63.232-27.875c-0.277-0.283-0.527-0.684-0.864-1.099
	c-0.095-0.117-0.197-0.288-0.308-0.422C216.439,444.589,218.088,443.541,219.72,442.549z M293.644,65.033l0.21,0.255l-45.646,27.966
	c-19.143,11.733-38.938,23.866-58.45,35.725c-2.703,1.644-3.837,3.514-3.918,6.457c-0.445,16.46-1.014,32.658-1.512,46.333
	c-0.772,21.183-1.568,42.366-2.369,63.692l-0.966,25.756c-0.07-0.027-0.14-0.055-0.208-0.081c-0.53-0.204-0.987-0.381-1.391-0.62
	c-4.468-2.654-8.933-5.314-13.397-7.975c-10.197-6.075-20.742-12.358-31.156-18.464c-1.704-1-1.835-2.225-1.848-4.124
	c-0.051-7.741-0.111-15.483-0.172-23.224c-0.11-14.128-0.224-28.737-0.277-43.105c-0.073-19.694-0.061-40.761,0.035-64.403
	c0.007-1.828,0.466-3.743,1.26-5.254c14.024-26.718,31.134-45.397,52.307-57.106c13.687-7.569,28.681-11.57,43.362-11.57
	c23.661,0,46.182,10.261,63.416,28.893C293.147,64.428,293.358,64.686,293.644,65.033z M396.815,372.422
	c-0.146-14.076-0.296-28.151-0.446-42.228c-0.237-22.202-0.474-44.405-0.695-66.607c-0.016-1.676-0.188-3.163-2.14-4.381
	c-30.548-19.058-61.566-38.497-91.564-57.296l-13.187-8.264c-2.296-1.438-4.584-2.889-7.011-4.427l-3.039-1.925l3.302-1.895
	c2.823-1.622,5.53-3.176,8.241-4.726l9.38-5.359c8.191-4.677,16.661-9.513,24.967-14.312c0.989-0.571,1.67-0.804,2.348-0.804
	c0.576,0,1.178,0.185,1.841,0.566c22.308,12.815,44.629,25.605,66.949,38.396c15.18,8.698,30.358,17.396,45.534,26.102
	c0.887,0.508,1.668,1.228,2.142,1.976c16.081,25.388,23.598,49.555,22.982,73.883c-1.057,41.799-27.062,74.148-67.868,84.425
	c-0.287,0.072-0.595,0.105-1.104,0.161c-0.182,0.021-0.388,0.043-0.624,0.07c0.001-1.32,0.005-2.628,0.009-3.927
	C396.84,378.672,396.849,375.546,396.815,372.422z M111.378,134.344l0.289,25.232c0.343,29.727,0.697,60.465,0.971,90.698
	c0.028,3.048,1.007,4.842,3.492,6.398c30.389,19.045,61.248,38.469,91.091,57.253l18.172,11.438c1.013,0.638,2.016,1.29,3.128,2.014
	l1.08,0.7l-2.028,1.174c-1.85,1.072-3.593,2.082-5.343,3.08c-3.41,1.949-6.821,3.894-10.233,5.838
	c-9.292,5.297-18.9,10.773-28.306,16.238c-0.842,0.489-1.543,0.718-2.207,0.718c-0.672-0.001-1.363-0.226-2.241-0.729
	c-21.258-12.204-42.527-24.386-63.797-36.567c-15.96-9.141-31.92-18.281-47.875-27.432c-0.86-0.494-2.023-1.297-2.673-2.322
	c-15.706-24.79-23.225-48.439-22.987-72.298c0.203-20.416,6.488-39.198,18.177-54.313c11.847-15.321,28.745-26.18,48.869-31.402
	c0.493-0.127,1.021-0.212,1.69-0.318c0.224-0.036,0.464-0.074,0.727-0.118l-0.002,1.246
	C111.368,132.089,111.365,133.217,111.378,134.344z M306.525,270.363c-0.216,5.692-0.431,11.385-0.641,17.077
	c-0.063,1.735-0.456,2.925-2.278,3.872c-15.095,7.845-31.199,16.329-49.235,25.938c-0.969,0.517-1.715,0.747-2.418,0.747h0
	c-0.73,0-1.47-0.254-2.327-0.8c-15.118-9.621-30.706-19.43-47.654-29.988c-1.48-0.922-1.721-1.947-1.647-3.518
	c0.319-6.822,0.598-13.76,0.867-20.469l0.311-7.681l-0.091-0.006c0.094-2.268,0.191-4.535,0.288-6.803
	c0.3-6.993,0.609-14.223,0.824-21.339c0.049-1.614,0.581-2.428,2.107-3.227c17.965-9.399,34.341-18.043,50.062-26.425
	c1.385-0.739,2.173-0.714,3.553,0.156c6.213,3.93,12.434,7.846,18.654,11.763c9.679,6.094,19.688,12.395,29.499,18.644
	c0.789,0.503,1.563,1.937,1.534,2.842C307.516,244.221,307.012,257.511,306.525,270.363z M437.085,196.526
	c-0.091,0.316-0.201,0.626-0.349,1.04l-0.096,0.273c-0.44-0.231-0.875-0.457-1.304-0.68c-1.229-0.639-2.411-1.253-3.573-1.907
	c-33.755-18.97-67.507-37.944-101.244-56.946c-0.987-0.556-2.008-1.131-3.214-1.131c-0.72,0-1.449,0.203-2.23,0.62
	c-28.748,15.335-58.017,30.853-86.322,45.859l-15.677,8.312c-4.019,2.131-8.042,4.253-12.129,6.41l-5.171,2.729l-0.002-9.304
	c-0.005-15.438-0.01-30.019,0.089-44.864c0.006-0.856,0.877-2.23,1.727-2.723c32.276-18.728,66.817-38.69,111.998-64.728
	c0.929-0.536,2.085-0.88,3.094-0.921c2.722-0.11,5.428-0.166,8.043-0.166c28.105,0,51.293,6.415,70.889,19.61
	C434.554,120.19,448.146,157.94,437.085,196.526z M71.014,319.751c0.161-0.584,0.363-1.154,0.598-1.813
	c0.056-0.158,0.114-0.319,0.172-0.487c3.602,1.999,7.183,3.979,10.748,5.95c8.026,4.438,16.326,9.028,24.41,13.58
	c25.623,14.428,48.984,27.652,71.417,40.428c0.888,0.506,1.677,0.741,2.482,0.741c1.076,0,2.062-0.445,2.967-0.927
	c35.807-19.034,72.244-38.331,107.481-56.992l10.506-5.563c0.274-0.146,0.564-0.262,0.916-0.402l0.004,9.801
	c0.008,15.133,0.016,29.425-0.123,44.014c-0.008,0.88-1.319,2.268-2.49,2.963c-20.163,11.954-38.404,22.679-55.764,32.789
	c-19.883,11.579-37.397,21.667-53.544,30.84c-2.318,1.316-4.964,2.104-7.259,2.159c-1.685,0.041-3.362,0.062-5.037,0.062
	c-29.93,0-54.155-6.936-74.062-21.201C73.141,393.261,60.646,357.396,71.014,319.751z"/>
</svg>
