<?xml version="1.0" encoding="utf-8"?>
<!-- Generator: Adobe Illustrator 17.0.0, SVG Export Plug-In . SVG Version: 6.00 Build 0)  -->
<!DOCTYPE svg PUBLIC "-//W3C//DTD SVG 1.1//EN" "http://www.w3.org/Graphics/SVG/1.1/DTD/svg11.dtd">
<svg version="1.1" id="Ebene_1" xmlns="http://www.w3.org/2000/svg" xmlns:xlink="http://www.w3.org/1999/xlink" x="0px" y="0px"
	 width="512px" height="512px" viewBox="0 0 512 512" enable-background="new 0 0 512 512" xml:space="preserve">
<path d="M396.769,222.109c-3.044-4.102-7.285-5.294-12.218-5.285c-33.635,0.064-67.27,0.033-100.904,0.033c-1.525,0-3.049,0-5.159,0
	c0.997-1.856,1.637-3.109,2.332-4.331c29.85-52.498,59.713-104.989,89.553-157.493c6.706-11.799,0.983-21.722-12.504-21.725
	c-50.597-0.011-101.194-0.008-151.792-0.001c-8.862,0.001-12.711,2.737-15.462,11.018c-25.639,77.18-51.273,154.362-76.895,231.547
	c-3.793,11.425,1.874,19.281,13.895,19.29c23.921,0.017,47.843,0.005,71.764,0.005c12.026,0,24.052,0,36.651,0
	c-0.822,2.016-1.343,3.348-1.904,4.664c-15.781,37.014-31.567,74.025-47.35,111.038c-6.926,16.242-13.915,32.458-20.744,48.741
	c-3.58,8.535,0.355,16.856,8.759,18.746c5.922,1.332,10.269-1.373,14.088-5.69c55.523-62.752,111.089-125.466,166.643-188.191
	c13.168-14.867,26.345-29.726,39.49-44.613C400.258,233.921,400.86,227.623,396.769,222.109z M223.417,394.229
	c-0.264-0.166-0.529-0.333-0.793-0.499c0.566-1.428,1.1-2.869,1.701-4.281c14.292-33.548,28.615-67.083,42.875-100.645
	c3.787-8.914,0.202-17.269-8.235-19.33c-1.797-0.439-3.736-0.403-5.609-0.404c-34.786-0.022-69.573-0.016-104.359-0.016
	c-1.588,0-3.176,0-5.276,0c0.435-1.601,0.728-2.927,1.153-4.209c22.284-67.145,44.58-134.286,66.875-201.427
	c0.723-2.177,1.124-4.102,4.45-4.09c39.714,0.145,79.429,0.094,119.143,0.103c0.556,0,1.111,0.099,2.161,0.199
	c-0.847,1.609-1.521,2.983-2.275,4.31c-29.767,52.362-59.523,104.73-89.346,157.06c-2.639,4.631-4.324,9.228-1.802,14.372
	c2.735,5.58,7.417,7.651,13.488,7.637c31.308-0.075,62.616-0.035,93.923-0.035c1.571,0,3.142,0,5.867,0
	C312.291,293.866,267.854,344.048,223.417,394.229z"/>
</svg>
