<?xml version="1.0" encoding="utf-8"?>
<!-- Generator: Adobe Illustrator 17.0.0, SVG Export Plug-In . SVG Version: 6.00 Build 0)  -->
<!DOCTYPE svg PUBLIC "-//W3C//DTD SVG 1.1//EN" "http://www.w3.org/Graphics/SVG/1.1/DTD/svg11.dtd">
<svg version="1.1" id="Ebene_1" xmlns="http://www.w3.org/2000/svg" xmlns:xlink="http://www.w3.org/1999/xlink" x="0px" y="0px"
	 width="512px" height="512px" viewBox="0 0 512 512" enable-background="new 0 0 512 512" xml:space="preserve">
<path d="M208.104,315.454c1.645-2.056,2.396-3.203,3.345-4.153c56.847-56.876,113.722-113.724,170.56-170.61
	c8.483-8.49,18.284-11.651,29.943-8.022c17.348,5.4,24.331,28.333,12.936,42.478c-1.273,1.58-2.595,3.135-4.028,4.569
	c-63.793,63.826-127.61,127.629-191.398,191.459c-8.461,8.466-18.345,12.033-29.869,7.947c-4.204-1.49-8.339-4.221-11.524-7.376
	c-32.012-31.717-63.886-63.573-95.654-95.534c-14.369-14.457-10.863-36.233,6.977-45.092c10.579-5.253,22.99-2.73,32.467,6.729
	c24.54,24.495,49.05,49.021,73.536,73.569C206.338,312.364,206.924,313.669,208.104,315.454z"/>
</svg>
