<?xml version="1.0" encoding="utf-8"?>
<!-- Generator: Adobe Illustrator 17.0.0, SVG Export Plug-In . SVG Version: 6.00 Build 0)  -->
<!DOCTYPE svg PUBLIC "-//W3C//DTD SVG 1.1//EN" "http://www.w3.org/Graphics/SVG/1.1/DTD/svg11.dtd">
<svg version="1.1" id="Ebene_19" xmlns="http://www.w3.org/2000/svg" xmlns:xlink="http://www.w3.org/1999/xlink" x="0px" y="0px"
	 width="512px" height="512px" viewBox="0 0 512 512" enable-background="new 0 0 512 512" xml:space="preserve">
<g>
	<title>check-box</title>
	<g id="PassageNew_15_">
		<g id="Buttons_1_" transform="translate(-705.000000, -265.000000)">
			<g id="check-box_1_" transform="translate(705.000000, 265.000000)">
				<path id="Shape_10_" d="M172.504,195.759c0-16.635,13.486-30.121,30.121-30.121h120.483c16.636,0,30.121,13.486,30.121,30.121
					v120.483c0,16.636-13.485,30.121-30.121,30.121H202.625c-16.635,0-30.121-13.485-30.121-30.121V195.759z M300.086,243.019
					c3.921-3.921,3.921-10.278,0-14.199c-3.921-3.921-10.278-3.921-14.199,0l-33.061,33.062l-12.981-12.981
					c-3.921-3.921-10.278-3.921-14.199,0c-3.921,3.921-3.921,10.278,0,14.199l20.081,20.08c3.921,3.921,10.278,3.921,14.199,0
					L300.086,243.019z"/>
			</g>
		</g>
	</g>
</g>
</svg>
