<?xml version="1.0" encoding="utf-8"?>
<!-- Generator: Adobe Illustrator 17.0.0, SVG Export Plug-In . SVG Version: 6.00 Build 0)  -->
<!DOCTYPE svg PUBLIC "-//W3C//DTD SVG 1.1//EN" "http://www.w3.org/Graphics/SVG/1.1/DTD/svg11.dtd">
<svg version="1.1" id="Ebene_22" xmlns="http://www.w3.org/2000/svg" xmlns:xlink="http://www.w3.org/1999/xlink" x="0px" y="0px"
	 width="512px" height="512px" viewBox="0 0 512 512" enable-background="new 0 0 512 512" xml:space="preserve">
<path d="M86.045,207.866c0-28.408-0.055-56.815,0.019-85.223c0.051-19.581,11.692-34.454,29.913-38.253
	c3.017-0.629,6.185-0.736,9.284-0.738c56.685-0.042,113.371-0.058,170.057-0.018c23.428,0.016,39.258,15.934,39.266,39.395
	c0.02,56.556,0.021,113.111,0,169.667c-0.009,23.365-15.959,39.468-39.262,39.491c-56.685,0.056-113.371,0.055-170.056,0.001
	c-23.199-0.022-39.122-15.907-39.197-39.099C85.974,264.682,86.045,236.274,86.045,207.866z M110.977,207.728
	c0,28.136-0.007,56.272,0.004,84.409c0.004,10.605,4.546,15.142,15.151,15.143c56.143,0.006,112.285,0.007,168.428-0.001
	c10.489-0.001,15.105-4.674,15.105-15.252c0.003-56.143,0.003-112.285,0-168.428c-0.001-10.557-4.536-15.039-15.219-15.04
	c-56.143-0.004-112.285-0.004-168.428,0.001c-10.597,0.001-15.034,4.469-15.037,15.149
	C110.971,151.715,110.977,179.721,110.977,207.728z"/>
<path d="M301.937,428.343c-28.536,0-57.072,0.047-85.608-0.017c-18.823-0.042-33.53-11.195-37.742-28.607
	c-0.724-2.994-1.057-6.147-1.094-9.232c-0.13-10.894-0.082-21.791-0.043-32.686c0.029-7.968,5.131-13.6,12.315-13.718
	c7.282-0.12,12.566,5.633,12.59,13.793c0.031,10.506-0.012,21.013,0.015,31.519c0.023,9.059,4.876,13.995,13.924,13.999
	c56.942,0.025,113.885,0.025,170.827,0.001c9.119-0.004,13.907-4.79,13.912-13.934c0.027-56.942,0.03-113.885-0.003-170.827
	c-0.005-9.052-4.94-13.897-14.004-13.941c-9.469-0.045-18.938,0.04-28.406-0.03c-7.01-0.052-12.249-4.984-12.604-11.677
	c-0.357-6.727,4.354-12.86,11.185-13.01c12.428-0.273,24.96-0.64,37.289,0.609c17.147,1.736,30.345,16.848,31.329,34.015
	c0.082,1.424,0.154,2.851,0.155,4.276c0.008,56.813,0.006,113.625,0.007,170.438c0,16.692-7.305,29.065-22.606,35.781
	c-5.149,2.26-11.294,3.049-16.999,3.11C358.233,428.509,330.084,428.343,301.937,428.343z"/>
</svg>
