<?xml version="1.0" encoding="utf-8"?>
<!-- Generator: Adobe Illustrator 17.0.0, SVG Export Plug-In . SVG Version: 6.00 Build 0)  -->
<!DOCTYPE svg PUBLIC "-//W3C//DTD SVG 1.1//EN" "http://www.w3.org/Graphics/SVG/1.1/DTD/svg11.dtd">
<svg version="1.1" id="Ebene_20" xmlns="http://www.w3.org/2000/svg" xmlns:xlink="http://www.w3.org/1999/xlink" x="0px" y="0px"
	 width="512px" height="512px" viewBox="0 0 512 512" enable-background="new 0 0 512 512" xml:space="preserve">
<title>check-box</title>
<path d="M323.108,165.638H202.625c-16.635,0-30.121,13.486-30.121,30.121v120.483c0,16.636,13.485,30.121,30.121,30.121h120.483
	c16.636,0,30.121-13.485,30.121-30.121V195.759C353.228,179.124,339.743,165.638,323.108,165.638z M340.228,316.241
	c0,9.44-7.68,17.121-17.121,17.121H202.625c-9.44,0-17.121-7.68-17.121-17.121V195.759c0-9.44,7.68-17.121,17.121-17.121h120.483
	c9.44,0,17.121,7.68,17.121,17.121V316.241z"/>
</svg>
