<?xml version="1.0" encoding="utf-8"?>
<!-- Generator: Adobe Illustrator 17.0.0, SVG Export Plug-In . SVG Version: 6.00 Build 0)  -->
<!DOCTYPE svg PUBLIC "-//W3C//DTD SVG 1.1//EN" "http://www.w3.org/Graphics/SVG/1.1/DTD/svg11.dtd">
<svg version="1.1" id="Ebene_17" xmlns="http://www.w3.org/2000/svg" xmlns:xlink="http://www.w3.org/1999/xlink" x="0px" y="0px"
	 width="512px" height="512px" viewBox="0 0 512 512" enable-background="new 0 0 512 512" xml:space="preserve">
<g>
	<title>cancel</title>
	<g id="PassageNew_4_">
		<g id="Message_9_" transform="translate(-1081.000000, -1145.000000)">
			<g id="cancel_1_" transform="translate(1081.000000, 1145.000000)">
				<path id="Path_3_" d="M289.774,256l114.653-114.666c3.154-3.156,4.894-7.368,4.899-11.858c0-4.493-1.74-8.709-4.899-11.861
					L394.38,107.57c-3.159-3.164-7.37-4.897-11.865-4.897c-4.488,0-8.698,1.733-11.857,4.897L256.005,222.229L141.347,107.57
					c-3.154-3.164-7.367-4.897-11.86-4.897c-4.488,0-8.701,1.733-11.855,4.897l-10.052,10.045c-6.542,6.542-6.542,17.184,0,23.719
					L222.236,256L107.58,370.661c-3.156,3.161-4.894,7.373-4.894,11.863c0,4.49,1.738,8.702,4.894,11.861l10.05,10.045
					c3.154,3.161,7.37,4.897,11.855,4.897c4.493,0,8.706-1.735,11.86-4.897l114.658-114.661L370.656,404.43
					c3.159,3.161,7.37,4.897,11.857,4.897h0.005c4.49,0,8.701-1.735,11.86-4.897l10.047-10.045c3.154-3.156,4.894-7.37,4.894-11.861
					c0-4.49-1.74-8.702-4.894-11.861L289.774,256z"/>
			</g>
		</g>
	</g>
</g>
</svg>
