<?xml version="1.0" encoding="utf-8"?>
<!-- Generator: Adobe Illustrator 17.0.0, SVG Export Plug-In . SVG Version: 6.00 Build 0)  -->
<!DOCTYPE svg PUBLIC "-//W3C//DTD SVG 1.1//EN" "http://www.w3.org/Graphics/SVG/1.1/DTD/svg11.dtd">
<svg version="1.1" id="Ebene_11" xmlns="http://www.w3.org/2000/svg" xmlns:xlink="http://www.w3.org/1999/xlink" x="0px" y="0px"
	 width="512px" height="512px" viewBox="0 0 512 512" enable-background="new 0 0 512 512" xml:space="preserve">
<g>
	<title>drag-vertical</title>
	<g id="PassageNew_13_">
		<g id="Message_6_" transform="translate(-316.000000, -137.000000)">
			<path id="drag-vertical_1_" d="M542.789,491.453c0,15.536-13.078,28.129-29.211,28.129s-29.211-12.594-29.211-28.129
				c0-15.535,13.078-28.129,29.211-28.129S542.789,475.917,542.789,491.453z M513.577,364.871
				c-16.133,0-29.211,12.594-29.211,28.129s13.078,28.129,29.211,28.129s29.211-12.594,29.211-28.129
				S529.71,364.871,513.577,364.871z M513.577,266.418c-16.133,0-29.211,12.594-29.211,28.129c0,15.535,13.078,28.129,29.211,28.129
				s29.211-12.594,29.211-28.129C542.789,279.012,529.71,266.418,513.577,266.418L513.577,266.418z M630.423,463.323
				c-16.133,0-29.211,12.594-29.211,28.129c0,15.536,13.078,28.129,29.211,28.129s29.211-12.594,29.211-28.129
				C659.634,475.917,646.555,463.323,630.423,463.323z M630.423,364.871c-16.133,0-29.211,12.594-29.211,28.129
				s13.078,28.129,29.211,28.129s29.211-12.594,29.211-28.129S646.555,364.871,630.423,364.871z M630.423,266.418
				c-16.133,0-29.211,12.594-29.211,28.129c0,15.535,13.078,28.129,29.211,28.129s29.211-12.594,29.211-28.129
				C659.634,279.012,646.555,266.418,630.423,266.418L630.423,266.418z"/>
		</g>
	</g>
</g>
</svg>
