<?xml version="1.0" encoding="utf-8"?>
<!-- Generator: Adobe Illustrator 17.0.0, SVG Export Plug-In . SVG Version: 6.00 Build 0)  -->
<!DOCTYPE svg PUBLIC "-//W3C//DTD SVG 1.1//EN" "http://www.w3.org/Graphics/SVG/1.1/DTD/svg11.dtd">
<svg version="1.1" id="Ebene_21" xmlns="http://www.w3.org/2000/svg" xmlns:xlink="http://www.w3.org/1999/xlink" x="0px" y="0px"
	 width="512px" height="512px" viewBox="0 0 512 512" fill="white" enable-background="new 0 0 512 512" xml:space="preserve">
<g>
	<title>Group 4</title>
	<g id="PassageNew_6_">
		<g id="Message_1_" transform="translate(-1111.000000, -1086.000000)">
			<g id="Group-4_1_" transform="translate(1111.000000, 1086.000000)">
				<path id="Path_13_" d="M340.641,193.469c-51.894,0-103.658,0-155.553,0c0,0.468,0,0.811,0,1.156
					c0,55.103-0.002,110.206,0.012,165.308c0,1.461,0.066,2.942,0.288,4.38c2.141,13.863,12.765,23.581,25.842,23.588
					c34.422,0.021,68.846,0.016,103.268-0.017c1.823-0.002,3.684-0.172,5.464-0.579c12.339-2.824,20.674-13.978,20.676-27.603
					c0.007-54.987,0.004-109.974,0.004-164.96C340.641,194.33,340.641,193.92,340.641,193.469z"/>
				<path id="Path_4_" d="M358.677,148.121c-15.363,0-30.727,0.008-46.09-0.029c-0.604-0.002-1.356-0.288-1.788-0.683
					c-4.188-3.842-8.308-7.747-12.491-11.592c-0.408-0.375-1.115-0.657-1.684-0.658c-22.504-0.033-45.009-0.033-67.514,0
					c-0.568,0.001-1.274,0.287-1.683,0.662c-4.156,3.82-8.278,7.673-12.371,11.551c-0.597,0.566-1.192,0.766-2.025,0.765
					c-15.324-0.02-30.65-0.015-45.974-0.015c-0.453,0-0.905,0-1.414,0c0,8.677,0,17.25,0,25.902c64.869,0,129.654,0,194.444,0
					c0-8.651,0-17.223,0-25.902C359.582,148.121,359.13,148.121,358.677,148.121z"/>
			</g>
		</g>
	</g>
</g>
</svg>
