<?xml version="1.0" encoding="utf-8"?>
<!-- Generator: Adobe Illustrator 17.0.0, SVG Export Plug-In . SVG Version: 6.00 Build 0)  -->
<!DOCTYPE svg PUBLIC "-//W3C//DTD SVG 1.1//EN" "http://www.w3.org/Graphics/SVG/1.1/DTD/svg11.dtd">
<svg version="1.1" id="Ebene_18" xmlns="http://www.w3.org/2000/svg" xmlns:xlink="http://www.w3.org/1999/xlink" x="0px" y="0px"
	 width="512px" height="512px" viewBox="0 0 512 512" fill="white" enable-background="new 0 0 512 512" xml:space="preserve">
<g>
	<title>check-circle</title>
	<g id="PassageNew_7_">
		<g id="Message_2_" transform="translate(-1073.000000, -1276.000000)">
			<g id="check-circle_1_" transform="translate(1073.000000, 1276.000000)">
				<path id="Shape_11_" d="M262.866,123.366c-73.136,0-132.634,59.497-132.634,132.634s59.497,132.634,132.634,132.634
					S395.5,329.137,395.5,256S336.003,123.366,262.866,123.366z M331.394,239.553l-48.92,48.025
					c-8.654,8.489-19.796,12.722-30.948,12.722c-11.031,0-22.061-4.156-30.683-12.479l-20.989-20.636
					c-4.355-4.277-4.41-11.274-0.133-15.629c4.266-4.366,11.285-4.421,15.629-0.133l20.923,20.569
					c8.577,8.29,22.117,8.245,30.738-0.199l48.909-48.013c4.344-4.288,11.318-4.211,15.629,0.144
					C335.826,228.28,335.76,235.276,331.394,239.553L331.394,239.553z"/>
			</g>
		</g>
	</g>
</g>
</svg>
