<?xml version="1.0" encoding="utf-8"?>
<!-- Generator: Adobe Illustrator 17.0.0, SVG Export Plug-In . SVG Version: 6.00 Build 0)  -->
<!DOCTYPE svg PUBLIC "-//W3C//DTD SVG 1.1//EN" "http://www.w3.org/Graphics/SVG/1.1/DTD/svg11.dtd">
<svg version="1.1" id="Ebene_12" xmlns="http://www.w3.org/2000/svg" xmlns:xlink="http://www.w3.org/1999/xlink" x="0px" y="0px"
	 width="512px" height="512px" viewBox="0 0 512 512" enable-background="new 0 0 512 512" xml:space="preserve">
<title>Group 3</title>
<g>
	<path d="M379.849,225.319h-25.833c-4.152,0-7.573-2.286-9.163-6.121c-1.59-3.835-0.782-7.875,2.148-10.81l18.265-18.26
		c2.685-2.685,4.162-6.259,4.162-10.053c0-3.799-1.478-7.369-4.162-10.058l-23.282-23.282c-5.369-5.369-14.732-5.379-20.111,0
		l-18.26,18.26c-2.935,2.93-6.985,3.748-10.81,2.153c-3.835-1.59-6.121-5.011-6.121-9.163v-25.833
		c0-7.839-6.377-14.216-14.216-14.216h-32.931c-7.839,0-14.216,6.377-14.216,14.216v25.833c0,4.152-2.286,7.573-6.121,9.163
		c-3.825,1.6-7.875,0.777-10.81-2.153l-18.26-18.26c-5.379-5.379-14.742-5.369-20.111,0l-23.282,23.282
		c-2.685,2.685-4.162,6.259-4.162,10.058c0,3.794,1.478,7.363,4.162,10.053L165,208.388c2.93,2.935,3.733,6.975,2.148,10.81
		c-1.585,3.835-5.011,6.121-9.163,6.121h-25.833c-7.839,0-14.216,6.377-14.216,14.216v32.926c0,7.844,6.377,14.221,14.216,14.221
		h25.833c4.152,0,7.573,2.286,9.163,6.121c1.59,3.835,0.782,7.875-2.148,10.81l-18.266,18.26c-2.685,2.685-4.162,6.259-4.162,10.053
		c0,3.799,1.478,7.369,4.162,10.058l23.282,23.282c5.374,5.374,14.732,5.384,20.111,0L208.388,347
		c2.935-2.93,6.97-3.738,10.81-2.148c3.835,1.59,6.121,5.011,6.121,9.163v25.833c0,7.839,6.377,14.216,14.216,14.216h32.926
		c7.839,0,14.216-6.377,14.216-14.216v-25.833c0-4.152,2.286-7.573,6.121-9.163c3.84-1.595,7.875-0.782,10.81,2.148l18.26,18.265
		c5.379,5.379,14.742,5.369,20.111,0l23.282-23.282c2.685-2.685,4.162-6.259,4.162-10.058c0-3.794-1.478-7.363-4.162-10.053
		l-18.265-18.26c-2.93-2.935-3.733-6.975-2.148-10.81c1.585-3.835,5.016-6.121,9.169-6.121h25.833
		c7.839,0,14.216-6.377,14.216-14.216v-32.931C394.065,231.696,387.688,225.319,379.849,225.319z M383.838,272.465
		c0,2.199-1.79,3.989-3.988,3.989h-25.833c-8.304,0-15.438,4.766-18.613,12.436c-3.181,7.67-1.508,16.087,4.367,21.957l18.265,18.26
		c1.56,1.56,1.56,4.091,0,5.645l-23.282,23.282c-1.555,1.555-4.086,1.565-5.645,0l-18.26-18.265
		c-5.875-5.875-14.287-7.537-21.957-4.367c-7.67,3.175-12.436,10.309-12.436,18.613v25.833c0,2.199-1.79,3.989-3.989,3.989h-32.931
		c-2.199,0-3.989-1.79-3.989-3.989v-25.833c0-8.304-4.766-15.438-12.436-18.613c-2.572-1.069-5.221-1.59-7.839-1.59
		c-5.185,0-10.212,2.045-14.118,5.952l-18.26,18.265c-1.565,1.565-4.096,1.555-5.645,0l-23.282-23.282
		c-1.56-1.56-1.56-4.091,0-5.645l18.265-18.26c5.87-5.87,7.548-14.287,4.367-21.957c-3.175-7.665-10.309-12.431-18.613-12.431
		h-25.833c-2.199,0-3.989-1.79-3.989-3.989v-32.931c0-2.199,1.79-3.989,3.989-3.989h25.833c8.304,0,15.438-4.766,18.613-12.436
		c3.181-7.67,1.509-16.087-4.367-21.957l-18.265-18.26c-1.56-1.56-1.56-4.091,0-5.645l23.282-23.282c1.555-1.56,4.086-1.56,5.645,0
		l18.26,18.26c5.865,5.865,14.277,7.548,21.957,4.367c7.67-3.17,12.436-10.304,12.436-18.608v-25.833
		c0-2.199,1.79-3.989,3.989-3.989h32.926c2.204,0,3.994,1.79,3.994,3.989v25.833c0,8.304,4.766,15.438,12.436,18.613
		c7.681,3.181,16.087,1.503,21.957-4.367l18.26-18.26c1.565-1.56,4.096-1.56,5.645,0l23.282,23.282c1.56,1.56,1.56,4.091,0,5.645
		l-18.265,18.26c-5.87,5.87-7.547,14.287-4.367,21.957c3.176,7.67,10.309,12.436,18.613,12.436h25.833
		c2.199-0.005,3.988,1.785,3.988,3.983V272.465z"/>
	<path d="M256,209.979c-25.378,0-46.021,20.643-46.021,46.021s20.643,46.022,46.021,46.022s46.022-20.643,46.022-46.022
		S281.378,209.979,256,209.979z M256,291.795c-19.733,0-35.795-16.061-35.795-35.795c0-19.733,16.062-35.795,35.795-35.795
		c19.733,0,35.795,16.062,35.795,35.795C291.794,275.733,275.733,291.795,256,291.795z"/>
</g>
</svg>
