<?xml version="1.0" encoding="utf-8"?>
<!-- Generator: Adobe Illustrator 17.0.0, SVG Export Plug-In . SVG Version: 6.00 Build 0)  -->
<!DOCTYPE svg PUBLIC "-//W3C//DTD SVG 1.1//EN" "http://www.w3.org/Graphics/SVG/1.1/DTD/svg11.dtd">
<svg version="1.1" id="Ebene_13" xmlns="http://www.w3.org/2000/svg" xmlns:xlink="http://www.w3.org/1999/xlink" x="0px" y="0px"
	 width="512px" height="512px" viewBox="0 0 512 512" enable-background="new 0 0 512 512" xml:space="preserve">
<title>settings (2)</title>
<path d="M383.996,229.575h-26.694c-13.841,0-20.77-16.737-10.987-26.52l18.878-18.878c3.673-3.673,3.673-9.634,0-13.307
	l-24.062-24.062c-3.673-3.673-9.634-3.673-13.307,0l-18.878,18.878c-9.788,9.782-26.52,2.854-26.52-10.987v-26.694
	c0-5.2-4.212-9.413-9.412-9.413h-34.03c-5.195,0-9.407,4.212-9.407,9.413v26.7c0,13.841-16.732,20.77-26.52,10.987l-18.878-18.883
	c-3.673-3.673-9.634-3.673-13.307,0l-24.062,24.062c-3.673,3.673-3.673,9.634,0,13.307l18.878,18.878
	c9.788,9.782,2.854,26.52-10.987,26.52h-26.694c-5.2,0-9.413,4.212-9.413,9.412v34.03c0,5.195,4.212,9.407,9.413,9.407h26.694
	c13.841,0,20.77,16.737,10.987,26.52l-18.878,18.878c-3.673,3.678-3.673,9.634,0,13.307l24.062,24.062
	c3.673,3.673,9.634,3.673,13.307,0l18.878-18.878c9.788-9.788,26.52-2.854,26.52,10.987v26.694c0,5.2,4.212,9.413,9.412,9.413h34.03
	c5.195,0,9.407-4.212,9.407-9.413v-26.694c0-13.841,16.732-20.775,26.52-10.987l18.878,18.878c3.673,3.673,9.634,3.673,13.307,0
	l24.062-24.062c3.673-3.673,3.673-9.634,0-13.307l-18.878-18.878c-9.788-9.782-2.854-26.52,10.987-26.52h26.694
	c5.2,0,9.413-4.212,9.413-9.412v-34.03C393.409,233.787,389.197,229.575,383.996,229.575z M256,298.28
	c-23.349,0-42.28-18.931-42.28-42.28s18.931-42.28,42.28-42.28s42.28,18.931,42.28,42.28S279.349,298.28,256,298.28z"/>
</svg>
